<svg width="223" height="9" viewBox="0 0 223 9" fill="none" xmlns="http://www.w3.org/2000/svg">
<mask id="mask0_386_2048" style="mask-type:alpha" maskUnits="userSpaceOnUse" x="0" y="0" width="223" height="9">
<rect width="223" height="8.1974" fill="#C4C4C4"/>
</mask>
<g mask="url(#mask0_386_2048)">
<path d="M33.4961 -1.73345L34.0411 -1.8415L32.9805 -1.99642L33.4889 -2.10982C33.9987 -2.10878 34.6592 -1.93886 35.0187 -2.02915C35.0626 -2.11656 34.5075 -2.14461 34.3658 -2.21426C34.2405 -2.28565 34.1382 -2.35656 34.0601 -2.42617C34.3377 -2.42542 34.643 -2.40858 34.9577 -2.37665C35.381 -2.3245 35.7962 -2.29914 36.1575 -2.30339C36.8963 -2.2893 37.61 -2.30336 38.4132 -2.30026L38.146 -2.51064L39.1811 -2.46142C39.2908 -2.44539 39.4216 -2.47117 39.5294 -2.45134C40.4265 -2.28359 40.8061 -2.375 41.2368 -2.4508C41.3251 -2.47041 41.4315 -2.48506 41.5531 -2.49435C42.7499 -2.45416 43.829 -2.21902 44.9068 -2.09831C45.1097 -2.06748 45.3042 -2.02792 45.4767 -1.98243C45.8516 -1.89398 46.2685 -1.82176 46.6895 -1.77239C47.1105 -1.72302 47.5219 -1.69807 47.8863 -1.69981C48.6921 -1.70176 49.6025 -1.64326 50.5293 -1.52996C50.805 -1.49264 51.0808 -1.46802 51.3392 -1.45767C51.5976 -1.44732 51.8329 -1.45146 52.0301 -1.46984L52.6568 -1.34975C52.9284 -1.39848 53.2729 -1.42522 53.6692 -1.42834C54.0655 -1.43145 54.5055 -1.41089 54.9624 -1.36789C55.4493 -1.32125 55.9438 -1.28981 56.449 -1.24049C57.4925 -1.14622 58.5082 -1.08856 59.4642 -1.06931C60.8881 -1.01228 62.2792 -0.96818 63.7156 -0.897072C64.6142 -0.86275 65.4897 -0.843871 66.337 -0.840538C67.3519 -0.827113 68.4496 -0.762121 69.5774 -0.648698C69.5239 -0.542283 69.0294 -0.573721 68.6975 -0.577323C67.6268 -0.59501 66.5311 -0.640843 65.4296 -0.675274C64.9333 -0.688714 64.4508 -0.693804 63.9847 -0.690508C63.2055 -0.69492 62.384 -0.723275 61.5344 -0.775088C60.1923 -0.8321 58.893 -0.859505 57.6499 -0.857024C57.5525 -0.852809 57.4632 -0.84534 57.3835 -0.834741C57.3669 -0.825562 57.3636 -0.813985 57.374 -0.801126C57.3844 -0.788266 57.4081 -0.774547 57.4428 -0.761289C57.4775 -0.748031 57.522 -0.73568 57.5722 -0.72541C57.6224 -0.715139 57.6765 -0.707294 57.7294 -0.702633C58.2231 -0.630515 58.7534 -0.553059 59.219 -0.542163C59.237 -0.541348 59.2562 -0.539489 59.2751 -0.536717C59.2941 -0.533946 59.3124 -0.530331 59.3287 -0.526137C60.371 -0.373889 61.228 -0.399653 62.0399 -0.374882C63.388 -0.307937 64.6874 -0.276666 65.9187 -0.281543C66.1048 -0.281212 66.3057 -0.272509 66.5142 -0.25575C67.8038 -0.187815 69.0096 -0.180216 70.0752 -0.2333C70.5138 -0.246748 70.9216 -0.276937 71.3929 -0.277443C71.6832 -0.279521 71.9359 -0.298785 72.1358 -0.334086C72.3357 -0.369386 72.4786 -0.419991 72.5561 -0.482857C72.7549 -0.449758 72.9568 -0.42026 73.1595 -0.394717C73.2805 -0.380111 73.3966 -0.376231 73.4842 -0.383875C73.5718 -0.391517 73.6245 -0.410111 73.6316 -0.435896C73.6679 -0.508106 73.3917 -0.54437 73.1521 -0.575293C73.2966 -0.590779 73.4594 -0.59989 73.6368 -0.602405C74.6354 -0.618905 75.7064 -0.59943 76.8267 -0.544409C77.6965 -0.47855 78.3908 -0.532155 79.306 -0.439281C79.4157 -0.423256 79.506 -0.446777 79.607 -0.452425C79.8703 -0.482166 80.1983 -0.488852 80.5626 -0.471896C80.9269 -0.454939 81.3164 -0.414853 81.6976 -0.355112C82.1721 -0.518324 83.1973 -0.33187 83.9543 -0.315112C84.1874 -0.232111 83.92 -0.246703 83.9085 -0.223899C83.897 -0.201096 83.9085 -0.223905 83.817 -0.23726C83.0612 -0.119716 82.0256 -0.0940848 80.8556 -0.16397C80.6392 -0.16368 80.4331 -0.158324 80.2391 -0.147957C79.9453 -0.133282 79.614 -0.134748 79.2599 -0.152289C78.8728 -0.165172 78.5173 -0.159053 78.2105 -0.134229C78.0339 -0.134632 77.8846 -0.122196 77.7764 -0.0980652C77.6682 -0.0739331 77.6046 -0.0388866 77.5915 0.00381345C77.7094 0.0367327 77.8401 0.0668534 77.9785 0.0929828C78.7013 0.196145 79.4221 0.238847 79.999 0.212685C81.003 0.167609 82.1979 0.211597 83.2656 0.196209C83.9873 0.189975 84.7553 0.207731 85.5551 0.249148C85.5551 0.249148 85.5341 0.290954 85.5322 0.294754C85.6267 0.312855 85.7262 0.327377 85.8248 0.337491C85.8248 0.337491 85.8248 0.337491 85.8343 0.318489C85.7905 0.30024 85.731 0.283073 85.6629 0.268974L85.4252 0.23425C85.5867 0.225213 85.7377 0.198309 85.9061 0.214748C86.2609 0.245287 86.6 0.25818 86.903 0.25266C87.206 0.247141 87.4666 0.223318 87.6691 0.182624C88.0282 0.130471 88.4747 0.106754 88.9799 0.113003C89.3671 0.10731 89.7402 0.095072 90.0975 0.0763529C90.0975 0.0763529 90.1205 0.0307499 90.2897 0.00651058C90.1294 -0.0233837 89.9623 -0.0477956 89.796 -0.0656035C89.0725 -0.110095 88.347 -0.150784 87.6361 -0.181202C87.3742 -0.184488 87.128 -0.179392 86.9022 -0.166012C86.2766 -0.150356 85.5739 -0.172577 84.8348 -0.231381C84.8348 -0.231381 84.6885 -0.252748 84.6154 -0.263432C84.8228 -0.363681 85.5378 -0.263319 85.8271 -0.331211C86.0031 -0.329975 86.3129 -0.321438 86.3023 -0.33931C86.2782 -0.363162 86.2753 -0.385319 86.2938 -0.404193C86.3124 -0.423067 86.352 -0.438191 86.4097 -0.44848C86.4674 -0.458768 86.5418 -0.463968 86.6276 -0.463705C86.7134 -0.463441 86.8085 -0.457717 86.906 -0.446949C87.7199 -0.388704 88.4866 -0.372507 89.1589 -0.399349C89.4138 -0.398831 89.6996 -0.381568 89.9526 -0.377249C90.1075 -0.372047 90.2488 -0.374941 90.3691 -0.385769C90.9803 -0.465518 91.8029 -0.471342 92.7132 -0.402367C93.1531 -0.377569 93.5642 -0.374252 93.9252 -0.392588C94.182 -0.39587 94.2909 -0.33917 94.4738 -0.31246L95.2502 -0.256155L94.253 -0.185603C94.4662 -0.0239194 94.6357 0.0293923 94.9839 0.039465C95.492 0.0546772 95.9867 0.0615486 96.4653 0.060039C96.8193 0.0587102 97.1116 0.02389 97.5908 0.0857357C97.6755 0.0958229 97.7571 0.0990882 97.8217 0.0949832C98.3829 0.0400779 99.0588 0.0274764 99.8031 0.0580403C100.188 -0.0447743 100.845 0.0551885 101.452 0.135731C101.648 0.058284 101.293 0.0227333 101.081 -0.0245202C101.589 -0.0196831 102.101 -0.0224452 102.625 -0.0111368C102.783 -0.0152537 102.963 -0.00821154 103.152 0.00943551C103.34 0.0270826 103.532 0.0548511 103.712 0.0905713C103.8 0.113652 103.906 0.131022 104.008 0.139075C104.11 0.147129 104.2 0.145251 104.26 0.133827C104.532 0.100141 104.968 0.131168 105.193 0.0742662C105.273 0.06118 105.387 0.0593525 105.515 0.0691044C105.643 0.0788567 105.777 0.0995568 105.892 0.127493C105.766 0.13621 105.654 0.149936 105.558 0.168369C105.214 0.228248 105.34 0.328299 105.777 0.473757C106.449 0.465756 107.134 0.468028 107.757 0.440613C108.104 0.416005 108.529 0.423698 108.984 0.46283C109.439 0.501961 109.907 0.570978 110.334 0.662121C110.489 0.697171 110.665 0.721443 110.828 0.730125C110.991 0.738806 111.129 0.731258 111.214 0.708975C111.267 0.683205 111.283 0.650591 111.262 0.613961L110.823 0.549859C110.823 0.549859 110.84 0.515654 110.844 0.508053L111.475 0.502306C111.808 0.502107 112.157 0.512182 112.472 0.509311C112.936 0.490223 113.465 0.500863 114.027 0.540572C114.545 0.581288 115.055 0.612066 115.551 0.632632C116.031 0.653801 116.379 0.586316 116.836 0.57554C117.181 0.567416 117.561 0.576098 117.961 0.601244C118.652 0.645843 119.287 0.645927 119.806 0.601484C120.412 0.840932 120.707 0.879865 121.269 0.815162L121.533 0.796679L121.606 0.848037L121.808 0.836743C122.186 0.826684 122.564 0.816629 122.958 0.813041C123.506 0.835263 124.099 0.895048 124.677 0.986559C124.786 1.00259 124.936 1.05703 125.032 1.09966C125.128 1.1423 125.339 1.2709 125.493 1.35462C125.325 1.41573 125.138 1.47417 125.005 1.54443C124.991 1.55643 124.993 1.57075 125.009 1.58622C125.025 1.60169 125.055 1.61789 125.096 1.63352C125.138 1.64914 125.191 1.66376 125.249 1.67619C125.308 1.68862 125.371 1.69852 125.434 1.70509C125.557 1.71926 125.679 1.72871 125.793 1.73304C126.358 1.74051 126.899 1.73496 127.411 1.71643C127.598 1.69029 127.854 1.68781 128.138 1.70938C128.423 1.73095 128.719 1.77534 128.981 1.83551C129.65 1.79938 130.428 1.81006 131.261 1.86678C132.142 1.83228 133.206 1.90204 134.03 1.82646C134.01 1.86446 134.095 1.9299 134.214 1.9676C134.401 2.02486 134.613 2.07793 134.842 2.12456L136.582 2.2156C136.647 2.26242 136.728 2.30981 136.825 2.35715C136.891 2.39456 137.006 2.43115 137.146 2.45919C137.286 2.48723 137.439 2.5045 137.574 2.50734C137.92 2.52122 138.211 2.4902 138.623 2.56684C137.988 2.63928 137.13 2.62965 136.203 2.53968C135.333 2.47125 134.495 2.43705 133.722 2.43835C133.467 2.43783 133.131 2.44183 133.052 2.48322C132.875 2.60021 132.413 2.58172 131.875 2.56014C131.451 2.53652 131.065 2.53917 130.747 2.56787C130.429 2.59658 130.188 2.65053 130.045 2.72527C130.008 2.79748 130.095 2.85912 130.467 2.90114L132.011 3.06963C132.239 3.04796 132.455 3.02232 132.658 2.99281C133.001 2.9536 133.424 2.94284 133.895 2.96136C134.366 2.97988 134.871 3.02718 135.372 3.09958C135.628 3.13698 135.884 3.17437 136.07 3.1566C136.233 3.13619 136.383 3.11176 136.519 3.08347C136.546 3.06452 136.557 3.0427 136.551 3.01886C136.65 3.02995 136.748 3.04436 136.844 3.0616C137.606 3.26274 138.197 3.25926 138.734 3.20709C138.879 3.19158 138.989 3.16693 139.136 3.14762C139.283 3.12831 139.335 3.10325 139.469 3.11054C140.535 3.17651 140.842 2.95618 141.741 2.96503C141.784 2.95643 141.812 2.94356 141.82 2.92762C141.828 2.91168 141.816 2.89318 141.786 2.87382C141.723 2.85634 141.65 2.84131 141.573 2.83011C141.496 2.8189 141.419 2.81189 141.348 2.80972C140.934 2.78144 140.569 2.79011 140.314 2.83424C140.134 2.85228 139.944 2.86664 139.743 2.87727L138.844 2.55821C139.715 2.58746 140.54 2.58726 141.298 2.55764C141.463 2.541 141.743 2.56966 141.976 2.57511L143.688 2.60493C144.04 2.60741 144.34 2.55739 144.831 2.67398C144.831 2.67398 145.155 2.69278 145.242 2.67686C145.328 2.66094 145.712 2.56193 145.94 2.49743C146.206 2.51582 146.574 2.56544 146.739 2.54881C147.028 2.50794 147.278 2.45555 147.485 2.39258L148.519 2.48248C148.518 2.56233 148.48 2.63746 148.407 2.70671C148.326 2.77349 148.329 2.85367 148.415 2.94066C148.501 3.02766 148.667 3.11902 148.901 3.20727L149.922 3.67466C150.089 3.70596 150.267 3.72703 150.431 3.73501C150.596 3.74298 150.739 3.73748 150.842 3.71925C151.281 3.66513 151.774 3.62282 152.213 3.56869C152.78 3.65149 152.634 3.78523 153.046 3.90255L154.381 4.09753C154.585 4.27821 154.792 4.4513 154.173 4.51179C154.05 4.52236 154.133 4.5916 154.021 4.62005C154.502 4.75565 155.031 4.79624 155.519 4.87976C155.712 4.93982 155.873 5.0034 155.994 5.06743C156.128 5.16383 156.398 5.26231 156.748 5.34159C157.097 5.42087 157.497 5.4746 157.862 5.49117C158.473 5.54193 159.099 5.61817 159.711 5.71647C159.921 5.75065 160.136 5.77556 160.342 5.78951C160.548 5.80346 160.741 5.80612 160.907 5.79733C161.5 5.78186 162.001 5.72863 162.379 5.64112C162.753 5.56686 163.257 5.53107 163.845 5.53699C164.851 5.6839 165.054 5.90526 165.662 6.10024L164.611 6.1221C164.573 6.19811 164.642 6.29394 164.211 6.29219C163.78 6.29044 163.999 6.36317 164.139 6.43661C164.188 6.47356 164.284 6.51156 164.411 6.54419C164.538 6.57682 164.687 6.60207 164.834 6.61566L165.729 6.70967C166.046 6.74544 166.353 6.76072 166.617 6.75382C166.88 6.74692 167.089 6.71811 167.221 6.67056C167.372 6.6254 167.581 6.59486 167.835 6.5808C168.158 6.54396 168.424 6.48917 168.623 6.41851L169.887 6.52146C169.94 6.45046 170.114 6.40067 170.378 6.38051C170.642 6.36036 170.98 6.37108 171.336 6.41086L172.187 6.47405C173.134 6.54299 173.342 6.52029 173.619 6.3201L172.484 5.96251C172.649 5.86832 172.808 5.78553 172.967 5.70274C172.684 5.58493 172.307 5.47351 171.874 5.37978C171.469 5.27907 171.053 5.18152 170.627 5.08753C170.165 4.99147 169.677 4.90795 169.103 4.79968C169.003 4.76465 168.857 4.7026 168.671 4.64281C168.485 4.58472 168.291 4.52777 168.09 4.47219C168.128 4.39618 168.162 4.32777 168.089 4.23953C168.442 4.26769 168.807 4.31693 169.151 4.38282C169.495 4.44871 169.807 4.52917 170.058 4.61696C170.101 4.63253 170.153 4.64715 170.211 4.65984C170.269 4.67253 170.331 4.68299 170.394 4.69051C171.015 4.74445 171.312 4.85713 171.615 4.9953C171.82 5.06592 172.083 5.12865 172.369 5.17476C172.918 5.25489 173.455 5.35783 173.979 5.44669C174.14 5.4763 174.307 5.50067 174.473 5.5188C175.021 5.57645 175.573 5.65706 176.101 5.75653C176.273 5.78181 176.438 5.81526 176.582 5.8541C176.727 5.89293 176.846 5.93601 176.931 5.97975C176.8 6.02766 176.729 6.08815 176.723 6.15755C176.7 6.20315 177.086 6.29613 177.268 6.36351C177.45 6.4309 177.093 6.39915 176.972 6.40593C176.474 6.41896 176.382 6.44628 176.68 6.59585C176.779 6.64288 176.845 6.68993 176.874 6.73409C176.902 6.77825 176.893 6.81857 176.845 6.85255C176.775 6.99317 176.56 7.10862 176.412 7.24616C176.641 7.33676 177.024 7.43353 177.066 7.54569C177.086 7.57058 177.129 7.59694 177.19 7.62288C177.252 7.64882 177.331 7.67368 177.423 7.69567C177.663 7.74314 177.882 7.79992 178.062 7.86159C178.242 7.92326 178.379 7.98817 178.461 8.05131C178.488 8.07742 178.553 8.10512 178.643 8.12886C178.733 8.1526 178.841 8.17062 178.946 8.1793C179.072 8.18997 179.184 8.18857 179.26 8.17538C179.336 8.16219 179.37 8.13821 179.355 8.10843C179.358 8.05247 179.341 7.99413 179.305 7.93392C179.326 7.89211 179.347 7.8503 179.264 7.78107C179.639 7.80633 180.032 7.85697 180.402 7.92748C180.771 7.99799 181.102 8.08567 181.36 8.18099C181.644 8.2796 181.906 8.38315 182.221 8.49851C182.156 8.62773 182.156 8.62773 182.826 8.85619L186.382 8.9676L187.11 9.11892C187.79 9.25082 187.952 9.24179 188.378 9.17359L188.666 9.10949C189.269 9.19763 189.964 9.29914 190.342 9.13397C190.464 9.24162 190.544 9.27778 190.516 9.29411C190.336 9.45298 190.023 9.58777 189.589 9.69316C189.479 9.71781 189.401 9.7554 189.272 9.77738C188.857 9.90144 188.761 10.0931 189.003 10.3133C189.123 10.4107 189.298 10.5104 189.522 10.6093C189.194 10.7465 188.761 10.8602 188.233 10.9473C187.785 11.0147 187.416 11.105 187.136 11.2155C186.886 11.3269 186.51 11.4107 186.031 11.462C185.788 11.4838 185.611 11.5268 185.517 11.5868C185.489 11.7491 185.553 11.9229 185.708 12.1043C185.738 12.1595 185.821 12.2191 185.951 12.2785C186.081 12.3379 186.255 12.3954 186.459 12.4465C186.459 12.4465 186.557 12.4853 186.604 12.5085C186.644 12.7051 186.496 12.8783 186.172 13.0166C186.119 13.0558 186.011 13.0841 185.858 13.0985C185.706 13.1129 185.515 13.1128 185.307 13.0982C184.867 13.0748 184.457 13.0719 184.031 13.0587C183.573 13.0401 183.17 13.0548 182.863 13.1012C182.556 13.1476 182.358 13.224 182.289 13.3224C182.285 13.3503 182.271 13.3769 182.249 13.4022C182.236 13.4152 182.229 13.4292 182.228 13.444L183.205 13.7661L182.1 13.8944C182.035 14.0236 182.565 14.1011 182.831 14.197L182.667 14.2506C182.455 14.2809 182.171 14.2229 181.913 14.1893L181.657 14.1519L181.626 14.2127C181.467 14.2955 180.885 14.2025 180.659 14.2632C180.432 14.3239 180.594 14.3924 180.933 14.4583C181.17 14.5074 181.423 14.5464 181.675 14.5726C181.927 14.5989 182.171 14.6115 182.388 14.6097C182.518 14.6032 182.626 14.5883 182.705 14.5661C183.163 14.4714 183.67 14.39 184.221 14.3225C184.643 14.2618 185.172 14.2361 185.77 14.2469C185.946 14.2423 186.157 14.2567 186.368 14.2875C186.579 14.3183 186.775 14.3635 186.922 14.4152L187.232 14.4237C187.232 14.4237 187.401 14.477 187.377 14.4858C187.259 14.6437 187.396 14.8368 187.768 15.0365L187.445 15.0545C186.983 15.036 187.276 15.1563 187.207 15.2156C186.879 15.2044 186.453 15.1543 186.297 15.2295L186.064 15.2241L186.156 15.2374L186.266 15.2128L186.7 15.3252C186.495 15.3441 186.346 15.3672 186.164 15.3773C186.063 15.3862 185.983 15.4018 185.929 15.4233C185.874 15.4447 185.846 15.4716 185.846 15.5022C185.846 15.5494 185.792 15.5891 185.689 15.6175C185.585 15.6459 185.435 15.6622 185.254 15.6646C185.037 15.6657 184.914 15.7169 184.787 15.7351L185.338 16.0441C185.338 16.0441 185.064 16.004 185.213 16.0585L185.232 16.0205L185.566 16.0978C185.807 16.1656 185.975 16.182 186.117 16.1335C186.26 16.0849 186.227 16.1495 186.295 16.1309C186.271 16.1803 186.116 16.2148 185.983 16.2444C185.83 16.2676 185.657 16.2847 185.467 16.2954C185.809 16.5127 185.826 16.5192 185.326 16.5767C184.826 16.6342 184.998 16.7206 184.58 16.7329C184.161 16.7452 184.637 16.8922 184.917 16.9209C185.125 16.9397 185.336 16.9691 185.538 17.0069C185.739 17.0448 185.925 17.0902 186.083 17.1401L185.999 17.3073C185.876 17.2935 185.752 17.2755 185.633 17.2539C185.228 17.1621 184.859 17.0756 184.498 17.129L184.67 17.256L183.412 17.1824C183.444 17.2776 183.636 17.3861 183.947 17.4849C183.9 17.5392 183.871 17.5963 183.861 17.6559C183.84 17.6977 183.716 17.6714 183.635 17.6759C183.347 17.6829 183.11 17.7113 182.946 17.7584C182.782 17.8056 182.695 17.8702 182.694 17.9465C182.662 18.0111 183.105 18.1452 183.382 18.1407C184.073 18.1536 184.821 18.2033 185.585 18.2872C186.05 18.2981 186.116 18.1282 186.882 18.2441C186.898 18.3226 186.799 18.3861 186.603 18.4251C186.406 18.4641 186.122 18.4764 185.792 18.4602C185.98 18.6345 187.017 18.6799 187.063 18.862C186.804 18.8491 186.528 18.8189 186.261 18.7742C185.995 18.7295 185.747 18.6719 185.542 18.6072C185.498 18.5913 185.442 18.5766 185.38 18.5645C185.319 18.5524 185.253 18.5433 185.189 18.538C185.125 18.5327 185.065 18.5315 185.015 18.5343C184.964 18.5372 184.925 18.5441 184.901 18.5544C185.044 18.6203 185.203 18.6964 185.383 18.7676C185.563 18.8388 185.606 18.8696 185.736 18.8845C186.705 19.026 187.166 19.281 188.004 19.4483C188.224 19.4804 188.251 19.5823 188.061 19.5708C187.88 19.5592 187.715 19.5608 187.587 19.5751C187.458 19.5895 187.37 19.6161 187.333 19.6521C187.192 19.6941 187.017 19.7275 186.812 19.7514C187.672 20.0131 188.697 20.2442 189.791 20.4233C189.999 20.4586 190.215 20.4802 190.408 20.4848C191.019 20.4851 191.667 20.5058 192.34 20.5467C192.579 20.5578 192.799 20.5568 192.989 20.5436C193.613 20.5124 194.109 20.5807 194.562 20.7733L195.311 21.0786C195.287 21.128 195.161 21.1831 195.064 21.2587L195.649 21.4217L200.117 21.0462L201.014 21.4098L202.3 21.3896C202.398 21.4001 202.497 21.4145 202.592 21.4323C202.852 21.5396 203.056 21.6428 203.338 21.7452C203.62 21.8476 204.124 21.86 204.476 21.9807C204.827 22.1014 205.179 22.1039 205.615 22.1756C205.655 22.2691 205.613 22.3532 205.49 22.4227C205.45 22.5025 205.229 22.5518 205.191 22.6278C205.195 22.7046 205.113 22.7698 204.952 22.8175C204.791 22.8653 204.556 22.8939 204.269 22.901C203.464 23.0646 202.493 23.181 201.386 23.2469C201.289 23.2517 201.208 23.2627 201.149 23.2794C201.09 23.296 201.054 23.3179 201.043 23.3437C201.045 23.4182 200.971 23.4827 200.827 23.5322C200.683 23.5818 200.473 23.6153 200.212 23.6302C200.142 23.6332 200.09 23.6426 200.061 23.6571C199.962 23.6665 199.89 23.6845 199.852 23.7093C199.813 23.7341 199.81 23.7649 199.843 23.7988C199.875 23.8326 199.942 23.8684 200.036 23.9025C200.131 23.9367 200.25 23.9681 200.383 23.9938C200.575 24.0351 200.771 24.0747 200.971 24.1123C200.959 24.1351 200.761 24.1388 200.79 24.1594C200.868 24.2249 200.887 24.2864 200.843 24.3388C200.8 24.3912 200.696 24.4332 200.54 24.4614L201.608 24.9927C202.256 25.0663 202.892 25.1911 203.395 25.3434C203.395 25.3684 203.366 25.3893 203.311 25.4041C203.255 25.4189 203.175 25.427 203.077 25.4277C202.817 25.4385 202.571 25.4597 202.29 25.4717C202.118 25.4807 201.975 25.5004 201.87 25.5298C201.764 25.5592 201.697 25.5976 201.674 25.6428L202.301 25.8405C202.1 25.8886 201.951 25.9117 201.818 25.9413C201.893 26.0034 202.023 26.0677 202.196 26.1291C202.369 26.1905 202.582 26.2474 202.818 26.2954C202.881 26.3053 202.946 26.3126 203.008 26.3167C203.07 26.3208 203.128 26.3218 203.179 26.3196C203.664 26.2518 204.232 26.3715 204.784 26.4847C205.335 26.5979 205.635 26.6661 206.042 26.7541L206.821 26.7659C207.018 26.8076 207.194 26.8566 207.335 26.9091C207.476 26.9615 207.577 27.0159 207.631 27.0678C207.589 27.1515 207.22 27.1056 207 27.1143C206.477 27.1663 205.79 27.1552 205.053 27.0828C204.87 27.0561 204.682 27.0777 204.504 27.0802C204.12 27.0906 203.751 27.1076 203.399 27.1309C203.167 27.1527 202.95 27.1796 202.75 27.2116C202.697 27.318 203.539 27.4002 203.061 27.4528C203.225 27.4768 203.287 27.5103 203.372 27.4982C203.914 27.5673 204.448 27.6014 204.912 27.5967C205.803 27.582 206.814 27.6305 207.864 27.7382C208.996 27.8498 210.083 27.8966 211.034 27.8749C211.396 27.8736 211.801 27.8964 212.217 27.9417C212.709 28.0043 213.197 28.0437 213.651 28.0572C213.801 28.0577 213.968 28.0684 214.139 28.0884C214.31 28.1083 214.479 28.1371 214.633 28.1722C214.62 28.1988 214.473 28.2181 214.506 28.2311C214.975 28.4301 215.165 28.6374 215.887 28.8408C216.381 28.9129 216.948 28.9957 217.271 28.9001C217.594 28.8045 217.478 28.7223 216.835 28.4775C216.975 28.474 217.143 28.4854 217.31 28.5098C217.477 28.5343 217.633 28.5701 217.75 28.6111L218.305 28.7942L218.806 28.9694C218.762 29.0568 218.728 29.1252 218.692 29.1974C218.634 29.2741 218.697 29.3675 218.871 29.4644C218.977 29.5173 219.068 29.5702 219.145 29.6227C219.458 29.8325 219.549 30.0308 219.407 30.1953C219.135 30.4319 218.756 30.6496 218.275 30.8459C217.767 31.0369 217.489 31.2777 217.07 31.4859C216.857 31.5806 216.598 31.6655 216.295 31.7398C215.721 31.9048 215.093 32.0619 214.517 32.2307C213.942 32.3996 213.292 32.5209 212.653 32.66C211.701 32.8252 210.672 32.9679 209.572 33.0872C208.892 33.1918 208.193 33.2936 207.563 33.4138C206.82 33.5493 205.946 33.6465 204.964 33.7032C204.097 33.7711 203.322 33.8714 202.655 34.0023C202.585 34.0165 202.53 34.0345 202.491 34.0558C202.37 34.1893 202.034 34.2834 201.532 34.3237C201.562 34.3628 201.601 34.4025 201.648 34.4427C201.718 34.4907 201.733 34.5355 201.69 34.5715C201.647 34.6075 201.55 34.6329 201.41 34.6445C201.008 34.6775 200.674 34.7337 200.423 34.8104C200.331 34.8297 200.274 34.8577 200.257 34.8922C200.239 34.9266 200.262 34.9664 200.324 35.0081C200.379 35.051 200.383 35.0905 200.336 35.1215C200.289 35.1524 200.193 35.1734 200.06 35.1817C199.72 35.2223 199.356 35.255 198.971 35.2795C198.15 35.3337 197.196 35.333 196.165 35.2776C196.055 35.2616 195.945 35.2863 195.817 35.2676C195.088 35.2055 194.411 35.1959 193.868 35.2399C193.231 35.257 192.565 35.2536 191.894 35.2616C190.924 35.2563 190.029 35.2889 189.235 35.3587C188.326 35.2913 187.816 35.4085 187.049 35.4107C186.341 35.4227 185.671 35.4516 185.043 35.497C184.031 35.5573 183.023 35.61 182.026 35.6806C181.091 35.7142 180.229 35.7785 179.457 35.8723C179.161 35.9147 178.625 35.8486 178.423 35.9375C178.221 36.0263 177.814 36.0159 177.485 36.0453L176.448 36.1181C176.269 36.1355 176.073 36.1464 175.862 36.1509C174.897 36.1568 174.229 36.2755 173.334 36.2997L173.242 36.2863C171.652 36.4627 169.833 36.5595 167.838 36.5738C166.672 36.628 165.397 36.6254 164.16 36.665C163.865 36.7443 163.169 36.6466 162.799 36.719C162.429 36.7914 161.824 36.7439 161.347 36.7558C160.87 36.7678 160.404 36.7975 159.894 36.7965C159.451 36.7968 159.077 36.8292 158.806 36.8906C158.188 36.9921 157.434 37.0517 156.578 37.0669C155.446 37.0933 154.376 37.1531 153.224 37.14C153.241 37.2139 153.17 37.2769 153.02 37.3223C152.869 37.3677 152.644 37.394 152.368 37.3984C151.137 37.4266 150.021 37.5001 148.773 37.5219L148.439 37.5221L144.708 37.5646C143.703 37.5728 142.735 37.5863 141.709 37.5956C141.325 37.5395 141.316 37.6361 141.05 37.6177C140.976 37.5701 140.888 37.5492 140.758 37.575L140.729 37.632L136.471 37.7076C134.804 37.7629 133.05 37.7795 131.225 37.7572C130.792 37.7628 130.388 37.7817 130.019 37.8136C129.677 37.8252 129.32 37.8304 128.951 37.829C128.452 37.8146 127.964 37.8074 127.49 37.8073C126.243 37.829 124.933 37.8173 123.567 37.8014C122.201 37.7854 121.166 37.8137 119.951 37.8116C119.127 37.8096 118.308 37.8 117.455 37.7775C117.048 37.767 116.547 37.7101 116.126 37.6894C115.704 37.6686 115.567 37.6689 115.511 37.7016C115.328 37.7931 114.867 37.7339 114.498 37.725C113.78 37.7097 113.677 37.6785 113.482 37.442L114.364 37.3668C114.58 37.3425 114.852 37.3383 115.153 37.3544C115.455 37.3705 115.775 37.4066 116.084 37.459C116.206 37.4814 116.333 37.4992 116.459 37.5112C116.584 37.5232 116.705 37.5292 116.815 37.5289C117.704 37.5161 118.582 37.4892 119.437 37.4672L119.562 37.4529L119.569 37.2419C119.456 37.2212 119.339 37.204 119.222 37.1911L114.933 37.0542C113.949 37.0206 112.927 36.9448 111.962 36.9139C110.996 36.8829 110.475 36.864 109.726 36.832C109.409 36.8138 109.087 36.7899 108.761 36.7604C108.78 36.7401 108.79 36.7185 108.793 36.6958C108.81 36.6616 108.833 36.616 108.695 36.5794C108.543 36.5278 108.341 36.4837 108.129 36.456C107.929 36.4376 107.735 36.4273 107.555 36.4252C106.685 36.4076 105.692 36.2961 104.787 36.1147L104.471 36.2358C103.111 36.1677 101.731 36.1008 100.311 36.0362C100.027 36.0186 99.7287 35.9848 99.4387 35.9373C99.1278 35.8919 98.8418 35.7971 98.5145 35.7452C98.1912 35.7078 97.8701 35.6787 97.5571 35.6584C97.6419 35.6272 97.7536 35.6023 97.8887 35.5844C98.0218 35.5782 98.1186 35.5587 98.1654 35.5288C98.2121 35.499 98.2064 35.4603 98.1488 35.4184C98.0475 35.3465 98.003 35.2788 98.2233 35.2702C98.4268 35.2538 98.5724 35.2183 98.6429 35.1679C98.7134 35.1175 98.706 35.0543 98.6214 34.9857C98.5843 34.9456 98.5582 34.9063 98.5431 34.8682L98.4516 34.8548C98.15 34.7128 97.5477 34.6616 97.1154 34.5454C96.9113 34.5117 96.7001 34.4923 96.5149 34.4903C96.0368 34.4654 95.5712 34.4545 95.0766 34.423C94.8405 34.4086 94.5934 34.3822 94.3501 34.3455C94.0027 34.2947 93.9661 34.2894 93.7644 34.1049C94.0777 34.1081 94.326 34.0805 94.4674 34.0269C94.6089 33.9732 94.6347 33.8967 94.5405 33.8103C94.2821 33.6216 94.0091 33.4226 92.8399 33.2886C93.2211 33.282 93.5881 33.2688 93.9392 33.2492C94.0413 33.245 94.1178 33.2312 94.1584 33.2095C94.199 33.1879 94.2017 33.1594 94.1662 33.1281C94.1308 33.0967 94.0587 33.0639 93.9599 33.034C93.861 33.0042 93.74 32.9786 93.613 32.9609C92.9959 32.8542 92.3521 32.7827 91.7539 32.7546C91.2498 32.7422 90.7948 32.7491 90.2061 32.7488L89.5112 32.6473C89.5227 32.6245 89.4206 32.5933 89.4466 32.5808C89.6231 32.4638 89.8179 32.3494 90.0185 32.2237C89.6981 32.1558 89.4206 32.0739 89.2177 31.9872C89.0148 31.9006 88.8946 31.8128 88.8711 31.7338C88.8538 31.71 88.8583 31.6883 88.8844 31.6703C88.9104 31.6522 88.9573 31.6383 89.0217 31.6294C89.2046 31.6141 89.3459 31.5849 89.4344 31.5441C89.523 31.5033 89.5566 31.4519 89.5326 31.394L88.9922 31.1804C87.3652 31.028 85.7674 30.9191 84.2286 30.8558L82.8394 30.8079C82.6718 30.7508 82.7237 30.7257 82.8814 30.7243C83.0392 30.7229 83.4827 30.7387 83.7924 30.7472C84.06 30.7584 84.2975 30.7511 84.4822 30.7259C84.6668 30.7007 84.7921 30.6585 84.8462 30.6033L84.3797 30.3598C84.4027 30.3142 84.4351 30.2496 84.6881 30.2539C84.861 30.2486 84.9883 30.2257 85.0496 30.1887C85.1109 30.1518 85.1026 30.103 85.026 30.0503C85.0143 30.0122 85.0318 29.9775 85.0775 29.9477C85.4517 29.9452 85.8239 29.9466 86.1635 29.935C86.3216 29.9311 86.4551 29.917 86.5549 29.8936C86.6548 29.8701 86.7186 29.838 86.742 29.7992C86.7543 29.7614 86.7244 29.7183 86.6549 29.6734C86.5854 29.6285 86.4782 29.5831 86.3419 29.5408C85.8098 29.4886 85.323 29.4879 84.9884 29.539C84.8692 29.579 84.6776 29.6009 84.4389 29.6017C84.2002 29.6025 83.9256 29.5823 83.6514 29.5436C83.3374 29.499 83.0241 29.4794 82.7677 29.4883C82.5114 29.4972 82.3289 29.5341 82.253 29.5922C81.9307 29.5696 81.6449 29.5524 81.363 29.5275C81.0305 29.4961 80.7161 29.4869 80.4539 29.5008C80.0344 29.5106 79.5825 29.5049 79.1081 29.4837C77.7411 29.4309 76.3721 29.3819 75.0484 29.3599C74.6983 29.3536 74.3953 29.3705 74.049 29.3567C73.7026 29.3428 73.4286 29.3803 72.9955 29.3048C72.913 29.293 72.83 29.2855 72.753 29.2827C72.676 29.28 72.6072 29.2821 72.552 29.2889C71.7914 29.3486 70.8996 29.3571 69.929 29.3137C68.5996 29.3031 67.221 29.2731 65.8897 29.2663C65.4993 29.2722 65.1303 29.2879 64.7866 29.3132C64.5251 29.3286 64.2511 29.339 63.9662 29.3444C63.7479 29.3492 63.5391 29.335 63.5759 29.4179C63.6128 29.5008 63.2855 29.4489 63.097 29.4336C62.449 29.3934 61.7868 29.339 61.1177 29.271C60.4584 29.197 59.8125 29.154 59.2185 29.1445C58.7894 29.1389 58.347 29.16 57.7954 29.0468C57.8165 29.005 57.8374 28.9631 57.9575 28.9195C57.5077 28.7994 56.9945 28.696 56.4602 28.618C55.926 28.54 55.3862 28.4895 54.8855 28.4708L54.1949 28.2434C54.0249 28.2167 53.8513 28.1973 53.6848 28.1863C53.5182 28.1753 53.3621 28.173 53.226 28.1794C53.1209 28.1827 52.9927 28.1743 52.8651 28.1556C52.7374 28.137 52.6189 28.1094 52.5312 28.0779C52.4 28.0379 52.2399 28.0034 52.0707 27.9787C51.9016 27.954 51.731 27.9402 51.5803 27.939C51.1058 27.9143 50.5994 27.8572 50.1128 27.7736C49.9865 27.7246 49.9074 27.674 49.8852 27.628C49.8629 27.582 49.8986 27.5426 49.9878 27.5147C50.1315 27.4654 50.2122 27.4027 50.225 27.3302C50.2378 27.2577 50.1824 27.1771 50.0622 27.0931C50.0006 27.0416 49.9801 26.9928 50.0017 26.9497C50.0234 26.9066 50.0869 26.87 50.1883 26.8423C50.5668 26.714 50.4655 26.6421 49.8462 26.4292C49.7456 26.3938 49.6244 26.3606 49.4901 26.3319C49.3559 26.3031 49.2116 26.2794 49.0665 26.2623C48.7259 26.2276 48.3899 26.2018 48.0648 26.1854C47.882 26.1586 47.6945 26.1802 47.4838 26.1698C46.4303 26.1179 46.2761 26.0342 45.9349 25.8538L45.6862 25.7237C45.2251 25.6183 44.7208 25.5307 44.2095 25.4673C43.6983 25.4039 43.193 25.3663 42.7299 25.3571C42.5459 25.3565 42.3343 25.3384 42.1276 25.3059C41.4549 25.2063 40.7736 25.1374 40.129 25.1037C39.7272 25.0847 39.2942 25.0357 38.8818 24.9624C38.4695 24.8892 38.0953 24.7948 37.8044 24.6907C37.5431 24.5969 37.2011 24.5128 36.8262 24.4499C36.3874 24.3858 36.3467 24.3105 36.5918 24.2525C36.8369 24.1945 37.2473 24.1198 37.6117 24.0588C37.7384 24.0381 37.817 24.0043 37.8386 23.9614C37.8602 23.9184 37.8239 23.868 37.7339 23.8156C37.6761 23.7259 37.6661 23.6408 37.7041 23.5623C37.7244 23.5297 37.7104 23.4924 37.663 23.4527C37.6156 23.4131 37.5359 23.3721 37.4292 23.3326C37.3226 23.293 37.1916 23.2558 37.0449 23.2235C36.8982 23.1912 36.7394 23.1644 36.579 23.1451C35.9025 23.0463 35.2442 22.9501 34.5542 22.8779C34.2651 22.8438 33.9762 22.8016 33.6948 22.7523C33.1186 22.6304 32.5022 22.5293 31.8814 22.4548C31.5868 22.4216 31.2987 22.3634 31.0796 22.2928C30.3884 22.1029 29.7515 21.9031 29.1805 21.6972C29.0428 21.6334 28.8628 21.5711 28.6515 21.5142C28.4402 21.4574 28.2024 21.4073 27.9528 21.367C27.7517 21.3376 27.588 21.2729 27.4329 21.2298C27.3203 21.1301 27.3082 21.0379 27.398 20.9618C27.4877 20.8858 27.6763 20.8283 27.9459 20.7948C28.2017 20.7547 28.441 20.708 28.662 20.6587C28.9285 20.6189 29.2453 20.5949 29.6006 20.5878C30.0215 20.5664 30.3326 20.5052 30.4936 20.4122C29.3416 20.244 28.2461 20.0024 27.2363 20.0588L26.469 19.906C26.4996 19.8452 26.5263 19.792 26.5511 19.7425C26.7336 19.6526 26.7906 19.5392 26.7173 19.4119C26.6568 19.3503 26.6623 19.2943 26.7331 19.2495C26.8039 19.2046 26.9375 19.1726 27.1204 19.1567C28.2038 18.9926 29.4568 18.8819 30.4729 18.6958C30.7914 18.6609 31.1644 18.645 31.576 18.6489C31.9742 18.6377 31.9575 18.5537 31.4993 18.45C31.2421 18.3959 30.9799 18.344 30.7138 18.2945C29.5402 18.2863 29.0621 18.5346 27.7229 18.4655L27.1022 18.1382C26.9343 18.1331 26.7714 18.1311 26.6145 18.1322L24.3689 18.2652C24.1819 18.2719 24.0363 18.2946 23.9487 18.3309C23.8611 18.3671 23.835 18.4154 23.8733 18.4702C23.8885 18.5373 23.8576 18.5989 23.7816 18.6526C23.7327 18.6903 23.764 18.7403 23.8687 18.7918C24.1048 18.9079 23.8019 18.9249 23.6106 18.954C23.5617 18.9569 23.5053 18.9566 23.4447 18.9531C23.3841 18.9497 23.3205 18.9432 23.2575 18.934C23.1946 18.9248 23.1336 18.9131 23.0781 18.8996C23.0225 18.8861 22.9736 18.871 22.934 18.8552C22.5969 18.7448 22.3021 18.6283 21.9708 18.5064C22.206 18.3899 21.9293 18.1985 22.2963 18.093C22.3374 18.0719 22.3538 18.0463 22.3446 18.0176C22.3354 17.9889 22.3007 17.9577 22.2428 17.9261C22.0933 17.8444 22.0221 17.7648 22.0364 17.6953C22.0507 17.6257 22.1499 17.5687 22.3241 17.53L22.3451 17.4882C21.8857 17.3477 22.0074 17.2227 21.827 17.0739L21.3851 16.9767C20.2858 16.7427 20.2839 16.7465 19.3374 16.7551C19.1466 16.6661 19.389 16.6525 19.5708 16.6424L21.0931 16.5425C22.0884 16.4757 23.1127 16.4295 24.2245 16.4043C25.3364 16.379 26.576 16.2949 27.7253 16.2343C27.7834 16.2296 27.8278 16.2203 27.8549 16.2073C27.8819 16.1942 27.8908 16.1777 27.8808 16.1591C27.8351 16.1391 27.7753 16.1197 27.7058 16.1025C27.6363 16.0853 27.5589 16.0707 27.4793 16.0597C27.1136 16.0063 26.7383 15.9718 26.3486 15.9272L25.622 15.8496L25.3985 15.7476C25.2531 15.6855 25.1537 15.6098 24.9602 15.5653C24.8007 15.532 24.6276 15.5068 24.4589 15.4922C24.2901 15.4776 24.132 15.4741 24.0009 15.4822C23.6373 15.5026 23.3085 15.532 22.9613 15.5589C22.6142 15.5857 22.4228 15.6148 22.1218 15.628C21.5102 15.6339 20.9191 15.6497 20.3511 15.6753C19.8727 15.7357 19.4302 15.8074 19.0264 15.8897C18.7745 15.9223 18.539 15.9613 18.1088 15.9189C17.9048 15.8804 17.7288 15.8299 17.612 15.7762C17.4952 15.7226 17.4453 15.6693 17.471 15.6258C17.4941 15.5918 17.5594 15.5648 17.6608 15.5475C17.7623 15.5302 17.8964 15.5231 18.0506 15.5269C18.4824 15.5206 18.8816 15.4996 19.2403 15.4641C19.7396 15.3998 20.3474 15.3721 21.0282 15.3825C21.2591 15.3918 21.4138 15.3573 21.6158 15.346C21.8178 15.3347 21.9889 15.3067 22.214 15.3273C22.9135 15.3805 23.2489 15.299 23.6681 15.246C23.81 15.2225 23.8979 15.1845 23.9222 15.1362C23.9465 15.0879 23.9061 15.0312 23.8056 14.9723C23.6122 14.855 23.3755 14.7371 23.0993 14.6203C22.9572 14.5629 22.775 14.5084 22.5672 14.4611C22.3595 14.4137 22.1316 14.3748 21.9016 14.3475C21.764 14.2756 21.6906 14.205 21.688 14.1419C21.6854 14.0789 21.7538 14.0254 21.8869 13.9863C22.2261 13.8972 22.5268 13.8065 23.2869 13.8563C23.6443 13.8753 23.9806 13.879 24.2825 13.8671C24.9522 13.8508 25.7246 13.8864 26.527 13.9706C26.7347 13.9921 26.9387 14.0068 27.1332 14.0142C28.5205 14.0659 29.8422 14.0917 31.1678 14.1099C31.87 14.1187 32.578 14.116 33.3111 14.1415C35.0302 14.1968 36.5951 14.1684 38.2545 14.1864C39.1235 14.1957 39.9014 14.1584 40.5473 14.0766C40.6731 14.0492 40.7811 14.0172 40.8701 13.981C40.4421 13.886 39.9719 13.8107 39.5047 13.7625C39.0375 13.7143 38.5888 13.6946 38.2017 13.7055C37.9889 13.7321 37.7138 13.7369 37.4072 13.7195C37.1006 13.7021 36.7744 13.6631 36.4651 13.6068L37.3644 13.575C37.9607 13.5601 38.5715 13.5555 39.1515 13.5342C40.0728 13.4974 40.9268 13.4385 41.8809 13.4147C42.6512 13.3928 43.3405 13.3369 43.9272 13.2486C44.3511 13.1842 44.8352 13.1385 45.3696 13.1125C45.7495 13.0986 45.7495 13.0986 45.9924 12.9669C45.7997 12.8816 45.5505 12.8697 45.3158 12.868C43.9087 12.8144 42.5695 12.805 41.3257 12.84C40.6981 12.8431 40.1414 12.8793 39.6822 12.9467C39.5698 12.9752 39.2821 12.9617 39.0512 12.9524C38.3274 12.9384 37.6356 12.9425 36.9841 12.9646C36.0834 13.0016 35.0802 12.9928 34.0136 12.9387C33.8114 12.8724 34.0442 12.8779 34.0556 12.8551C34.8818 12.8126 35.6915 12.7636 36.534 12.7276C36.7643 12.7147 37.0105 12.7084 37.2698 12.7086C38.2378 12.7309 39.0445 12.669 39.5768 12.5315C39.6035 12.4783 39.9537 12.4846 40.1084 12.4501C40.1845 12.4202 40.2352 12.385 40.259 12.3456C40.0336 12.2474 39.7787 12.2469 39.5824 12.2468C39.013 12.2577 38.4652 12.2785 37.9417 12.309C37.455 12.338 36.9163 12.3458 36.3402 12.3321C35.9149 12.3189 35.5514 12.3393 35.1224 12.3337C34.8897 12.322 34.6488 12.3033 34.4046 12.2778C34.6765 12.2094 35.046 12.1673 35.4873 12.1545C35.8219 12.1136 36.2403 12.1013 36.2937 11.9949C36.1357 11.9187 35.9597 11.9175 35.8183 11.9254C35.524 11.9251 35.2398 11.9299 34.9671 11.9398C34.3888 11.9614 33.7627 11.9617 33.1019 11.9407C32.754 11.9328 32.4238 11.9352 32.1169 11.9477C31.4215 11.9645 30.7551 12.0017 30.1183 12.0189C28.8141 12.0364 27.6245 12.0993 26.3712 12.1324C26.0923 12.1406 25.8423 12.1694 25.4746 12.1198C25.107 12.0701 25.0906 12.0637 25.0472 12.0329C24.9444 11.9815 24.9132 11.9316 24.9602 11.8937C25.0331 11.8583 25.1752 11.8385 25.361 11.838C26.4814 11.7816 27.544 11.7025 28.5422 11.601C28.9815 11.5807 29.3664 11.5392 29.6835 11.4781C29.935 11.4359 30.2333 11.4081 30.5691 11.3953C31.0575 11.3648 31.5666 11.3425 32.0945 11.3284C32.3401 11.3209 32.5489 11.2983 32.7087 11.2621C32.8685 11.2259 32.976 11.1767 33.0248 11.1176L32.3777 10.9211C32.2761 10.9119 32.1752 10.904 32.0756 10.8973L26.7048 11.0389L26.1729 11.0428C25.5899 11.0311 25.4475 11.0021 24.8945 10.7745C26.1565 10.7209 27.1485 10.5648 27.7718 10.3217C27.622 10.2956 27.4685 10.2731 27.3147 10.2549C26.3061 10.1975 25.3528 10.1822 24.4913 10.2097C23.9796 10.2125 23.4534 10.205 22.9253 10.2012C23.0797 10.0892 23.6714 10.1226 24.0571 10.0973C24.9785 10.0578 25.7933 9.97612 26.4754 9.85495C26.7106 9.8077 27.0048 9.77749 27.3446 9.7657C27.6847 9.76164 27.9687 9.73304 28.1721 9.68239C28.3754 9.63175 28.4918 9.56059 28.5113 9.47512C28.5433 9.39773 28.6123 9.32582 28.7173 9.26045C28.5316 9.1677 28.2366 9.07888 27.8878 9.01066C27.5391 8.94244 27.1604 8.8995 26.8229 8.88991C26.1025 8.85172 25.3553 8.7892 24.6002 8.70395C24.2241 8.66095 23.8553 8.63627 23.5178 8.63151C23.2202 8.62785 22.8818 8.5968 22.5544 8.54308C22.227 8.48937 21.9285 8.41594 21.7045 8.33401C21.4021 8.23272 21.1198 8.1303 20.8376 8.02788C20.5554 7.92547 20.2279 7.79604 19.8985 7.67041C19.608 7.65076 19.3252 7.63813 19.0538 7.6327C18.8426 7.6373 18.5963 7.6236 18.3437 7.59322C18.0912 7.56284 17.843 7.51704 17.6285 7.46123C17.7543 7.40617 17.8965 7.35759 18.0464 7.2938C17.8407 7.20958 17.6916 7.12368 17.6081 7.04135C17.5246 6.95902 17.5085 6.88198 17.5608 6.81492C17.5913 6.75411 17.3678 6.65211 17.2905 6.57147C17.1911 6.50196 17.1724 6.43709 17.2369 6.38536C17.3015 6.33363 17.4462 6.29747 17.6521 6.28161C17.9076 6.25234 18.1155 6.20825 18.2673 6.15117C18.3175 6.13635 18.343 6.11605 18.3416 6.09214C18.3402 6.06822 18.3118 6.04146 18.2591 6.01427C18.2064 5.9871 18.131 5.96037 18.0398 5.93655C17.9486 5.91273 17.8446 5.89258 17.7372 5.87793C17.4083 5.83639 17.0816 5.80947 16.776 5.79871C16.2494 5.77891 15.7453 5.76647 15.2637 5.7614C14.7311 5.75376 14.1385 5.70661 13.5462 5.62475C13.0159 5.54729 12.5405 5.47784 12.2812 5.32982C12.0219 5.1818 11.6073 5.18651 11.2885 5.07876C11.4676 4.98162 11.7859 4.91413 12.2112 4.8831C12.4896 4.87202 12.7219 4.84294 12.8934 4.79773C13.0648 4.75252 13.1716 4.69217 13.2068 4.62057L12.239 4.32009C11.466 4.17864 11.0384 4.28751 10.2033 4.2308L11.0638 4.11988C11.081 4.10891 11.0875 4.09604 11.0829 4.08187C10.9993 3.85753 10.8664 3.80956 9.98674 3.68515L9.49304 3.61304L8.71163 3.52745C8.58648 3.48148 8.49994 3.43353 8.46061 3.38841C8.42128 3.34329 8.43056 3.30258 8.48753 3.27035C8.60201 3.21614 8.63682 3.14687 8.58876 3.06891C8.51297 3.01728 8.50672 2.96967 8.57107 2.93436C8.63543 2.89905 8.76633 2.87826 8.94107 2.87561C9.08054 2.8715 9.09089 2.81182 9.16676 2.77803C9.24214 2.73145 9.37117 2.69571 9.54504 2.67324C9.71891 2.65076 9.93351 2.64208 10.1743 2.64779C10.8843 2.65245 11.5513 2.63497 12.1634 2.59565L12.0536 2.57962C12.6916 2.61414 13.2881 2.61833 13.814 2.59198C14.341 2.55881 15.0173 2.58009 15.5771 2.55986C16.0328 2.5645 16.3797 2.5186 16.5443 2.43189C16.7036 2.3491 17.2828 2.36842 17.7263 2.38425C17.989 2.39449 18.2429 2.39883 18.4853 2.39721C18.8106 2.37848 19.2174 2.39614 19.6378 2.44726C19.764 2.46297 19.8882 2.47129 19.9986 2.47141C21.0674 2.49289 22.1342 2.51818 23.1885 2.52939C23.4319 2.52293 23.7172 2.53772 24.0111 2.57203C24.1346 2.58693 24.2548 2.5931 24.3556 2.58971C26.0215 2.55564 27.9013 2.64257 29.5345 2.59556C29.7324 2.58445 29.9516 2.58215 30.1857 2.58869C30.7118 2.61631 31.1687 2.59854 31.487 2.53807C31.6587 2.50591 31.8788 2.48819 32.1334 2.48604C32.3879 2.48388 32.6713 2.49735 32.9654 2.52557C33.4548 2.56293 33.9071 2.56699 34.2745 2.5373C34.9911 2.50987 35.7446 2.49859 36.5291 2.50355C36.7696 2.50835 36.9809 2.49769 37.1467 2.4724C37.3126 2.4471 37.4286 2.40786 37.4857 2.3577C37.293 2.27244 37.0823 2.26206 36.8823 2.26956C36.1069 2.25013 35.3334 2.2269 34.5725 2.21775C33.8915 2.19159 33.238 2.1836 32.6217 2.19388C32.3157 2.20548 31.9338 2.17903 31.5595 2.12032C31.1007 2.04595 30.6281 2.009 30.2374 2.01695C29.9477 2.01893 29.6419 2.01252 29.3245 1.99783C29.1213 1.98011 28.913 1.94969 28.7211 1.90969C28.6449 1.89231 28.562 1.8777 28.4776 1.8668C28.3933 1.85589 28.3094 1.84893 28.2313 1.84634C28.1532 1.84376 28.0825 1.84562 28.0239 1.8518C27.9653 1.85798 27.92 1.86836 27.8909 1.88225C27.5969 1.99842 26.9397 1.93914 26.377 1.92629C25.5336 1.72967 24.9059 1.84604 24.1177 1.73499C24.0554 1.72763 23.994 1.72317 23.9372 1.72189C23.8805 1.72062 23.8297 1.72256 23.7877 1.72758C22.2624 1.79443 20.4846 1.73872 18.8831 1.7618C18.7065 1.76518 18.5015 1.75361 18.2914 1.72841C16.9185 1.56163 15.5985 1.51428 14.5895 1.59563C14.4667 1.60295 14.327 1.60326 14.1768 1.59655C13.487 1.53026 12.8272 1.50384 12.2527 1.51947C11.3524 1.51442 10.4867 1.51852 9.57185 1.50319C8.94123 1.48139 8.38801 1.50469 7.96761 1.57075C7.95424 1.59735 7.6742 1.56869 7.45968 1.56591C7.33631 1.49893 7.22935 1.43844 7.10216 1.37906C6.98846 1.30561 6.81814 1.23128 6.6028 1.16111C6.38745 1.09094 6.13214 1.02658 5.85405 0.972378C5.37861 0.902931 5.33107 0.802156 5.66375 0.765082C6.52124 0.642418 7.5995 0.592213 8.81924 0.618151C9.83888 0.620224 10.8768 0.624973 11.9109 0.63732C12.5141 0.64791 13.1499 0.671434 13.7367 0.675554C13.9347 0.684604 14.1381 0.697942 14.3448 0.715425C14.5984 0.740769 14.8446 0.754581 15.0702 0.756113C15.7946 0.734768 16.603 0.753364 17.457 0.811011C17.7697 0.823584 18.07 0.827819 18.3535 0.82366C19.024 0.808012 19.7509 0.819526 20.515 0.857902C20.9899 0.879542 21.4504 0.890857 21.8916 0.891726C22.0475 0.894092 22.1744 0.875914 22.3245 0.889681C23.6457 1.03372 24.5813 0.929679 25.7704 0.985066C26.3483 1.00051 26.9005 1.00055 27.4191 0.985197C28.4312 0.98594 29.4715 1.00173 30.5359 1.03251C31.9433 1.08307 33.2476 1.06553 34.5915 1.0864C34.8568 1.09079 35.1129 1.09004 35.3581 1.08416C36.5507 1.04531 37.8461 1.05355 39.2126 1.10868C39.5229 1.11664 39.8015 1.1069 40.0312 1.08008C40.2608 1.05325 40.4365 1.00991 40.5471 0.952771C40.5939 0.913556 40.5636 0.86262 40.462 0.809789C40.2933 0.742319 40.1028 0.676214 39.8937 0.612559L32.2871 0.398965C31.9676 0.387812 31.656 0.381807 31.354 0.380977C30.4656 0.379121 29.5499 0.362503 28.6114 0.331211C27.684 0.301817 26.7981 0.307034 25.8996 0.298184C25.635 0.295219 25.3633 0.288225 25.0858 0.277219C23.2099 0.19012 21.3806 0.13692 19.611 0.118005C18.8664 0.115319 18.0621 0.0753467 17.3031 0.0623893C16.5442 0.0494334 15.5062 0.0446898 14.6059 0.0396403L11.8183 0.0404144C11.27 0.0378372 10.7361 0.0455285 10.2042 0.0494228C9.55872 -0.228444 9.33628 -0.293574 8.47493 -0.415311C8.18025 -0.460216 7.88051 -0.487015 7.61086 -0.492568C6.75581 -0.470602 5.68294 -0.562039 4.87209 -0.549933C4.38282 -0.555906 3.96765 -0.525037 3.66908 -0.460489C3.4099 -0.409831 3.11353 -0.369747 2.78454 -0.340841C1.88332 -0.578549 1.8039 -0.732934 2.48182 -0.793012C2.66549 -0.806978 2.91849 -0.802657 3.05112 -0.832239C3.12723 -0.850253 3.23119 -0.860556 3.35473 -0.862337C3.47827 -0.864118 3.61797 -0.857331 3.76287 -0.8425C4.22019 -0.803602 4.64883 -0.794452 5.00578 -0.815974C5.34172 -0.844459 5.75349 -0.843322 6.20142 -0.812669C6.53057 -0.76459 6.81988 -0.832479 7.10453 -0.852093C7.38918 -0.871706 7.62278 -0.906939 8.06737 -0.854236C8.14879 -0.843744 8.22961 -0.837444 8.30365 -0.835822C8.37769 -0.8342 8.44298 -0.837299 8.4945 -0.84488C8.97201 -0.878823 9.54183 -0.875257 10.1577 -0.834474C11.1022 -0.794341 11.9885 -0.792837 12.7856 -0.83001C13.2628 -0.862538 13.6697 -0.92022 13.9903 -1.00081C14.0777 -1.02776 14.2074 -1.04392 14.3672 -1.04774C15.1692 -1.03093 16.0401 -0.967647 16.9237 -0.86198C17.2565 -0.819641 17.5889 -0.78615 17.9138 -0.762223C18.5816 -0.709067 19.2274 -0.679283 19.8322 -0.673747C20.711 -0.672871 21.626 -0.652418 22.5691 -0.612578C23.1511 -0.590394 23.7118 -0.582208 24.2448 -0.588105C24.7925 -0.590884 25.3774 -0.573964 25.986 -0.537734C26.5913 -0.508212 27.1248 -0.525222 27.522 -0.586707C27.6528 -0.619838 27.7582 -0.659183 27.8361 -0.704003C26.9499 -0.84985 26.0333 -0.923972 25.2709 -0.911444C24.9813 -0.921105 24.7409 -0.911352 24.4357 -0.968161L24.4262 -0.949158C24.3655 -0.936828 24.2739 -0.933918 24.1688 -0.940987C24.0638 -0.948054 23.9527 -0.964601 23.8566 -0.987479C23.8929 -1.05969 23.9273 -1.1281 23.9521 -1.17751C24.533 -1.16879 25.097 -1.1695 25.6413 -1.17963C26.1 -1.19421 26.7228 -1.06652 27.1199 -1.11458C27.8945 -1.05448 28.3876 -1.13747 29.0822 -1.11352C29.7768 -1.08958 30.5418 -1.01047 31.2364 -0.98652C31.8425 -0.973379 32.431 -0.970522 32.9986 -0.977964C33.1946 -0.988409 33.4204 -0.985959 33.6624 -0.970762C34.0025 -0.942172 34.3189 -0.937381 34.5752 -0.956942C34.8315 -0.976503 35.0173 -1.01963 35.1116 -1.08137C35.0229 -1.1392 34.9033 -1.21377 34.7655 -1.29102C35.0191 -1.35449 35.4042 -1.38122 35.8637 -1.36722L36.513 -1.37029C36.685 -1.36861 36.8166 -1.38577 36.8804 -1.41821C36.9442 -1.45066 36.9354 -1.4959 36.8558 -1.54459C35.6246 -1.7897 35.5792 -1.81672 34.6756 -1.65906L33.4758 -1.73232L33.4961 -1.73345ZM49.724 -1.06014L49.6326 -1.07349L49.724 -1.06014ZM199.24 25.018L199.219 25.0599L199.242 25.0142L199.443 25.0436L199.456 25.017L199.24 25.018ZM170.035 6.69413C169.751 6.64853 169.464 6.60659 169.176 6.5686C169.1 6.5627 169.03 6.56137 168.97 6.56472C168.91 6.56806 168.863 6.57598 168.833 6.58779C168.81 6.6334 168.97 6.66504 169.117 6.68641C169.301 6.71517 169.49 6.73345 169.663 6.73936C169.836 6.74526 169.987 6.73859 170.101 6.72002L170.266 6.70338L170.035 6.69413ZM23.5967 17.8097C23.7839 17.8174 23.9614 17.8187 24.1249 17.8134C24.85 17.7766 25.5443 17.723 26.2877 17.6888C27.2257 17.602 28.3036 17.5666 29.4809 17.5841C29.9408 17.5926 30.3294 17.5644 30.6012 17.5029C30.764 17.4699 30.974 17.4507 31.2185 17.4463L34.3309 17.3461C34.5233 17.3253 34.6896 17.2961 34.826 17.2593C34.5517 17.2192 34.3688 17.1925 34.2591 17.1765C34.0315 17.172 33.8358 17.1842 33.6917 17.2119C33.537 17.2589 33.2754 17.2775 32.9589 17.264C32.6394 17.2528 32.3279 17.2468 32.0258 17.246C31.4554 17.2483 30.8812 17.2583 30.3089 17.2644C30.0862 17.3951 29.429 17.3358 28.8662 17.3229L28.4314 17.3288C27.0103 17.3965 25.6528 17.4897 24.3655 17.6079C24.1167 17.6279 23.9024 17.6598 23.7291 17.7026C23.6638 17.736 23.6429 17.7776 23.668 17.8242L23.5766 17.8109L23.5967 17.8097ZM87.0584 30.3023C87.4032 30.3112 87.7622 30.3295 88.1302 30.3569C88.4137 30.3848 88.6903 30.4018 88.949 30.4071C90.3984 30.4364 91.9089 30.5041 93.4601 30.6091C93.6628 30.6251 93.8578 30.6329 94.0373 30.6323L95.3069 30.6056C95.707 30.5906 95.7146 30.5754 95.4234 30.3738C95.1817 30.3346 94.9373 30.2989 94.692 30.2669C94.5457 30.2455 94.308 30.2108 94.2523 30.2435C93.9131 30.3326 93.2944 30.2749 92.7739 30.256C91.2674 30.2073 89.7136 30.1353 88.1926 30.0764C87.8711 30.0619 87.5596 30.0546 87.2614 30.0546C87.0764 30.0515 86.9077 30.0572 86.7623 30.0714C86.7198 30.0728 86.6842 30.0771 86.6579 30.0838C86.6316 30.0905 86.6152 30.0995 86.6098 30.1103C86.6044 30.1211 86.6101 30.1334 86.6265 30.1463C86.6429 30.1593 86.6696 30.1726 86.705 30.1854C86.8294 30.2303 86.9732 30.2733 87.1316 30.313L87.0584 30.3023ZM98.0945 1.03641L99.5787 1.0125C99.7566 1.00994 99.9075 0.983028 100.098 0.994536C101.114 1.03101 102.055 1.02085 102.881 0.964492C103.162 0.941493 103.491 0.936894 103.849 0.950948C104.947 0.992596 105.983 0.994309 106.928 0.95604C107.539 0.94836 108.111 0.922563 108.636 0.879034C108.676 0.86893 108.701 0.855211 108.709 0.838814C108.718 0.822417 108.709 0.803728 108.683 0.78402C108.677 0.77157 108.659 0.758175 108.631 0.744763C108.603 0.73135 108.565 0.718232 108.521 0.70632C108.476 0.694408 108.426 0.683986 108.374 0.675763C108.321 0.66754 108.267 0.661712 108.216 0.658689C107.554 0.599768 106.925 0.579242 106.382 0.598776C105.878 0.622147 105.335 0.628987 104.762 0.619185C104.214 0.616608 103.842 0.692818 103.164 0.634665C102.878 0.615517 102.625 0.621821 102.449 0.652522C102.094 0.703411 101.599 0.706241 101.051 0.66051C100.723 0.637366 100.41 0.627442 100.124 0.631114C99.4282 0.647844 98.7637 0.681317 98.1193 0.713663C97.9163 0.721144 97.6987 0.722178 97.4701 0.716737L94.2436 0.653401C93.4682 0.633974 92.6947 0.610744 91.9338 0.60159C91.3115 0.581708 90.7325 0.587936 90.2169 0.620048C89.6673 0.653802 89.0678 0.667504 88.4298 0.660898C87.4391 0.679371 86.4541 0.686435 85.3758 0.683949C84.6881 0.685478 83.984 0.680539 83.2654 0.665323C82.9018 0.645741 82.5932 0.661689 82.3989 0.710095C82.2807 0.749948 82.0026 0.717481 81.7717 0.708231C80.5401 0.619089 79.3852 0.597968 78.3875 0.646337C78.2601 0.654219 78.1202 0.657072 77.971 0.654848C77.01 0.653187 76.0144 0.642383 75.0919 0.642263C74.849 0.646022 74.6205 0.656334 74.4091 0.673068C74.4317 0.700372 74.4963 0.729965 74.5893 0.755709C74.6824 0.781454 74.7968 0.801376 74.9088 0.81134C75.7813 0.887618 76.6237 0.927914 77.4006 0.930536C78.6939 0.920818 80.0485 0.942664 81.4505 0.995839C82.5384 1.04945 83.5303 1.03816 84.3525 0.962818C84.9952 0.906599 85.8312 0.927751 86.7171 1.02264C87.0961 1.06796 87.4641 1.08608 87.7705 1.07453C88.0655 1.05938 88.404 1.06305 88.7661 1.08534C89.5297 1.12772 90.264 1.14738 90.9547 1.14393C91.6299 1.12833 92.2598 1.08571 92.9533 1.07278C93.6468 1.05985 94.7029 1.06726 95.558 1.04529C96.4131 1.02333 97.2586 1.02037 98.0945 1.03641ZM36.5973 -1.18662C36.6757 -1.06911 36.953 -0.995967 37.2513 -0.964633C38.2798 -0.825497 39.2965 -0.766291 40.1309 -0.796948C40.5816 -0.839711 41.1824 -0.82325 41.8154 -0.750798C42.5523 -0.675483 43.2411 -0.662994 43.7605 -0.715529C43.8877 -0.724709 43.9851 -0.744115 44.044 -0.772019C44.0555 -0.794823 44.0765 -0.836627 44.0803 -0.844228C44.0257 -0.863505 43.9588 -0.881366 43.8847 -0.896435C43.8106 -0.911503 43.7313 -0.923374 43.6529 -0.931134L40.2463 -1.06565L39.6527 -1.09526C38.5684 -1.17281 37.5352 -1.2037 36.5973 -1.18662ZM43.2981 0.673329C43.8298 0.865217 43.8317 0.861409 44.104 0.905275C45.4181 1.08748 46.7313 1.18584 47.8873 1.18864C48.1442 1.18809 48.3623 1.16956 48.523 1.13463C48.6057 1.1299 48.6583 1.11485 48.6694 1.09278C48.6805 1.07071 48.6491 1.0434 48.5822 1.01681L48.1594 0.881628C47.3916 0.823103 46.6348 0.776601 45.8936 0.742401C45.0306 0.702018 44.2659 0.700459 43.3712 0.684008L43.2981 0.673329ZM86.9947 29.4526C87.4901 29.7167 87.492 29.7129 88.3214 29.781C88.8994 29.8293 89.46 29.8576 89.9868 29.8652C90.6303 29.8735 91.2902 29.8883 91.9319 29.9005C92.0886 29.9089 92.2214 29.9019 92.3045 29.8809C92.3876 29.8598 92.4151 29.8263 92.3816 29.7867C92.2975 29.7437 92.1657 29.7021 92.0079 29.6687C91.8501 29.6353 91.6754 29.612 91.5123 29.6026L91.1622 29.5963C90.737 29.5831 90.2954 29.5635 89.8846 29.5606C89.6181 29.5716 89.3094 29.5631 88.9825 29.5359C88.6556 29.5087 88.3196 29.4634 88.0006 29.4037L86.9947 29.4526ZM45.9436 -0.841315C46.0758 -0.795578 46.2254 -0.751772 46.3884 -0.711065C47.0194 -0.598233 47.6872 -0.534148 48.2609 -0.531376C48.5322 -0.524385 48.7803 -0.549341 49.0565 -0.513077C49.5519 -0.464617 50.032 -0.438803 50.4708 -0.437033C50.4708 -0.437033 50.5939 -0.447614 50.6343 -0.449873L50.7183 -0.617098C50.5106 -0.655837 50.2939 -0.687485 50.0783 -0.710585C49.3548 -0.755075 48.6438 -0.785492 47.9348 -0.81971C47.2257 -0.853928 46.9785 -0.869647 46.5148 -0.884345C46.3079 -0.876265 46.1166 -0.861852 45.9436 -0.841315ZM30.2755 19.948L31.2223 20.2902C31.5287 20.32 31.8149 20.3254 32.0374 20.3056C32.26 20.2858 32.4066 20.2419 32.455 20.1806C32.533 20.152 32.5408 20.1095 32.4768 20.0621C32.4128 20.0147 32.2819 19.9661 32.1116 19.9265C31.9478 19.8795 31.7607 19.8374 31.562 19.8028C31.3634 19.7682 31.1573 19.7417 30.9566 19.7252L30.2755 19.948ZM38.1587 18.2438C37.5395 18.1857 36.9472 18.162 36.4271 18.1744C36.0994 18.2084 35.6554 18.1975 35.1861 18.1441C34.3327 18.0376 33.51 18.0081 32.8917 18.0619C32.8917 18.0619 32.8687 18.1075 32.7639 18.1207C32.6591 18.134 33.0748 18.1661 33.1662 18.1795C33.8368 18.2122 34.5112 18.2372 35.0941 18.249C35.4561 18.2485 35.8389 18.2592 36.236 18.2811C36.7824 18.3149 37.3007 18.3258 37.7704 18.3135C37.7704 18.3135 37.9521 18.3034 38.1568 18.2476L38.1587 18.2438ZM104.295 0.416304C103.999 0.351843 103.678 0.299453 103.356 0.263068C103.035 0.226682 102.721 0.207246 102.437 0.206211C102.221 0.202848 102.045 0.219866 101.939 0.254578C101.832 0.28929 101.801 0.339713 101.85 0.397873C102.07 0.429926 102.362 0.472661 102.527 0.4967C103.097 0.494348 103.584 0.46344 104.295 0.416304ZM159.665 5.84836C159.427 5.79647 159.166 5.7568 158.91 5.73387C158.655 5.71094 158.415 5.70569 158.219 5.71871C158.118 5.72436 158.186 5.78332 158.169 5.81753C158.158 5.82528 158.158 5.83492 158.169 5.84545C158.181 5.85598 158.203 5.867 158.234 5.87735C158.265 5.88771 158.303 5.89702 158.345 5.90431C158.387 5.91161 158.43 5.91661 158.471 5.91881C158.729 5.94116 158.972 5.94781 159.179 5.93818C159.386 5.92854 159.55 5.90291 159.657 5.86357L159.665 5.84836ZM163.375 6.59016C163.338 6.55954 163.26 6.52763 163.155 6.50027C163.049 6.47291 162.924 6.45194 162.802 6.44121C162.586 6.43977 162.389 6.44826 162.22 6.46637C162.036 6.48033 162.168 6.56898 162.417 6.62158C162.522 6.64269 162.634 6.65916 162.745 6.66967C162.856 6.68019 162.961 6.68446 163.054 6.68215C163.147 6.67983 163.224 6.671 163.279 6.65635C163.334 6.6417 163.365 6.62164 163.371 6.59776L163.375 6.59016ZM55.5744 -0.515626C55.0209 -0.625032 54.5949 -0.597509 54.1263 -0.64148C53.6577 -0.685453 53.5422 -0.690079 53.605 -0.619716C53.6678 -0.549353 53.989 -0.563622 54.1902 -0.534241C54.4619 -0.495255 54.7353 -0.472868 54.9798 -0.46958C55.2243 -0.466292 55.4302 -0.482235 55.5744 -0.515626ZM170.912 17.996C170.619 17.9714 170.331 17.9541 170.055 17.9442C170.018 17.9544 169.995 17.9677 169.987 17.9834C169.98 17.999 169.987 18.0167 170.009 18.0354C170.009 18.0354 170.196 18.0914 170.306 18.1074C170.71 18.1624 170.73 18.0837 170.912 17.996ZM212.348 28.1892C212.546 28.2631 212.639 28.3133 212.798 28.3487C212.871 28.361 212.946 28.37 213.018 28.3749C213.091 28.3798 213.158 28.3806 213.215 28.3771C213.285 28.3558 213.301 28.3233 213.261 28.2859C213.261 28.2859 213.059 28.2196 212.982 28.2166C212.762 28.2009 212.55 28.1917 212.348 28.1892ZM46.1531 -1.14115C45.7325 -1.20258 45.3302 -1.26135 45.039 -1.18966C45.7069 -1.1125 45.7069 -1.1125 46.1531 -1.14115ZM52.965 -0.439867C52.5403 -0.571252 52.2911 -0.583175 52.0873 -0.568079C52.0439 -0.564277 52.0153 -0.555802 52.0056 -0.543942C51.9959 -0.532083 52.0058 -0.517481 52.0336 -0.502346C52.0615 -0.487211 52.1059 -0.472367 52.1601 -0.460058C52.2143 -0.44775 52.2754 -0.438646 52.334 -0.434128C52.5555 -0.430346 52.7667 -0.432267 52.965 -0.439867ZM74.8227 -0.38431C74.8322 -0.403312 74.8437 -0.426116 74.734 -0.442142C74.7052 -0.450278 74.6715 -0.457274 74.6362 -0.462431C74.6009 -0.467589 74.5653 -0.470723 74.5328 -0.471519C74.5328 -0.471519 74.5214 -0.448715 74.5137 -0.433512L74.8227 -0.38431ZM90.0012 31.1646L89.7569 31.1819L89.8666 31.198L90.1562 31.2076L90.0012 31.1646ZM176.007 6.29364C175.916 6.28029 175.824 6.26693 175.811 6.29353C175.792 6.29765 175.78 6.3036 175.776 6.31087C175.773 6.31815 175.777 6.32653 175.79 6.33534C175.79 6.33534 175.918 6.35404 175.973 6.36205L176.007 6.29364ZM161.768 6.50642C161.708 6.50489 161.654 6.50667 161.608 6.51166L161.597 6.53446L161.78 6.56117L161.768 6.50642ZM37.6758 11.9397C37.6052 11.9259 37.5303 11.9149 37.4564 11.9077L37.3649 11.8943C37.3649 11.8943 37.4632 11.9331 37.518 11.9412C37.5729 11.9492 37.6171 11.9393 37.6758 11.9397Z" fill="#F23D3D"/>
</g>
</svg>
