<svg width="440" height="333" viewBox="0 0 440 333" fill="none" xmlns="http://www.w3.org/2000/svg">
<path fill-rule="evenodd" clip-rule="evenodd" d="M218.98 3.17949C218.98 6.20069 218.938 6.41886 218.135 7.55361C217.345 8.66908 217.3 8.88519 217.458 10.8327C217.55 11.9798 217.62 13.5177 217.612 14.2509C217.594 15.9331 217.6 19.1651 217.627 21.4276C217.638 22.386 217.566 23.9346 217.466 24.868C217.361 25.8469 217.409 26.9144 217.579 27.3892C217.855 28.1623 217.625 28.3423 213.836 30.3157C211.616 31.4718 208.659 33.0134 207.265 33.7409L204.731 35.0634L204.73 37.2164L204.73 39.3695H219.913H235.096L235.191 37.2784C235.262 35.7233 235.181 35.1098 234.875 34.8846C234.649 34.7181 231.813 33.2336 228.572 31.5858C225.331 29.9376 222.588 28.4694 222.477 28.3235C222.365 28.1771 222.424 27.4598 222.608 26.729C222.887 25.6242 222.867 25.082 222.488 23.5052C222.074 21.7807 222.071 21.4678 222.455 20.0288C222.731 18.9982 222.81 17.9841 222.683 17.1179C222.443 15.4857 222.446 13.0748 222.69 10.7671C222.861 9.15135 222.803 8.91924 221.887 7.54788C220.93 6.11663 220.899 5.97309 220.899 3.03474V0H219.939H218.98V3.17949ZM203.716 44.4309L202.573 46.6221L198.944 46.8816C196.949 47.0248 195.209 47.3008 195.079 47.4952C194.95 47.6895 194.879 49.6781 194.922 51.9136L195.001 55.9784L220.008 56.083L245.015 56.188V51.7347V47.2815L242.918 47.0166C241.765 46.8706 240.053 46.7512 239.115 46.7512H237.408L236.245 44.4957L235.083 42.2401H219.971H204.86L203.716 44.4309ZM187.876 60.0311L184.039 61.3261L184.106 62.5482C184.143 63.2204 184.605 68.8375 185.134 75.0308C185.662 81.2241 186.094 86.345 186.094 86.411C186.094 86.4771 187.636 86.5308 189.52 86.5308H192.946V91.3962V96.2616L191.674 96.5224C190.975 96.666 189.002 96.7832 187.289 96.7832H184.176V99.0388V101.294H219.939H255.703V99.0388V96.7832L252.62 96.7796C250.924 96.7779 248.889 96.6598 248.098 96.5175L246.659 96.2587V91.395V86.5308H250.217C253.684 86.5308 253.777 86.5074 253.906 85.6081C254.13 84.0399 256.007 61.4221 255.921 61.3257C255.876 61.2761 253.99 60.6499 251.729 59.9347L247.618 58.6338L219.665 58.6847L191.712 58.736L187.876 60.0311ZM207.133 87.6586L207.059 96.5782L203.154 96.6918L199.249 96.8058V87.7721V78.7389H203.228H207.207L207.133 87.6586ZM218.158 87.7611V96.7832H214.321H210.485V87.7611V78.7389H214.321H218.158V87.7611ZM229.12 87.7721V96.8058L225.215 96.6918L221.31 96.5782L221.236 87.6586L221.162 78.7389H225.141H229.12V87.7721ZM240.082 87.7611V96.7832H236.245H232.409V87.7611V78.7389H236.245H240.082V87.7611ZM184.176 104.985V106.216H219.802C239.397 106.216 255.521 106.17 255.633 106.113C255.746 106.056 255.852 105.503 255.868 104.883L255.898 103.755H220.037H184.176V104.985ZM184.083 119.199C183.984 124.988 183.902 132.462 183.902 135.809V141.894H179.928H175.955V127.746V113.597H133.614H91.2739V116.452V119.307L90.2462 119.714C89.6811 119.938 79.1062 123.838 66.7466 128.38L44.2747 136.639L37.1494 137.481C33.2305 137.945 29.9244 138.455 29.8025 138.616C29.6805 138.777 31.1453 140.779 33.0573 143.067L36.5342 147.225H110.218H183.902V149.071V150.916H110.215C39.3253 150.916 36.5232 150.945 36.3985 151.659C36.327 152.067 36.2467 156.542 36.2198 161.604C36.1933 166.665 36.1001 171.407 36.0129 172.141C35.8238 173.736 38.1442 172.661 16.7482 181.066C7.78844 184.585 0.35818 187.557 0.236777 187.669C0.115374 187.782 0.0158944 188.877 0.0158944 190.105V192.336H82.7784H165.541V194.182V196.027H88.2972H11.0535L11.1924 236.003L11.3313 275.979L5.74213 276.09L0.152918 276.201L0.0764571 281.635L0 287.069H82.2224H164.445V290.759V294.449L82.2988 294.552L0.152918 294.656L0.0764571 300.09L0 305.523H78.2487H156.497V309.829V314.135H220.076H283.656V309.829V305.523H361.759H439.863V299.987V294.451H357.649H275.434V290.76V287.069H357.649H439.863V281.533V275.996H434.206H428.548L428.751 236.012L428.953 196.027H351.63H274.306L274.391 194.284L274.475 192.541L357.237 192.439L440 192.336L439.91 189.952L439.819 187.568L422.144 180.627C412.423 176.809 404.353 173.579 404.211 173.447C404.067 173.315 403.875 168.273 403.777 162.063L403.601 150.916H329.789H255.977V149.071V147.225H329.704H403.432L407.004 142.934C410.077 139.241 410.487 138.615 409.941 138.443C409.592 138.334 406.224 137.878 402.455 137.431L395.604 136.619L382.313 131.714C375.003 129.016 364.582 125.192 359.156 123.216C353.73 121.24 349.136 119.444 348.948 119.226C348.737 118.981 348.605 117.82 348.605 116.213V113.597H306.402H264.198V127.746V141.894H260.09H255.983L255.911 125.388L255.84 108.881L220.052 108.777L184.264 108.673L184.083 119.199ZM226.873 117.391L226.955 119.749H220.09H213.225V117.281V114.813L220.008 114.923L226.791 115.033L226.873 117.391ZM230.49 125.49V127.951H219.939H209.389V125.49V123.03H219.939H230.49V125.49ZM234.82 133.385L234.902 135.743H220.09H205.278V133.278V130.814L220.008 130.92L234.738 131.026L234.82 133.385ZM239.808 141.074V143.534H219.939H200.071V141.074V138.613H219.939H239.808V141.074ZM244.741 148.456V150.916H219.939H195.138V148.456V145.995H219.939H244.741V148.456ZM62.2248 165.27V173.472H58.7992H55.3736V165.27V157.068H58.7992H62.2248V165.27ZM73.7348 165.27V173.472H70.3092H66.8836V165.27V157.068H70.3092H73.7348V165.27ZM85.2448 165.282V173.496L81.7507 173.381L78.2566 173.267L78.1823 165.167L78.1081 157.068H81.6765H85.2448V165.282ZM96.7548 165.27V173.472H93.1922H89.6296V165.27V157.068H93.1922H96.7548V165.27ZM108.202 165.167L108.128 173.267L104.634 173.381L101.14 173.496V165.282V157.068H104.708H108.276L108.202 165.167ZM119.501 165.27V173.472H116.075H112.65V165.27V157.068H116.075H119.501V165.27ZM131.011 165.27V173.472H127.585H124.16V165.27V157.068H127.585H131.011V165.27ZM142.521 165.27V173.472H139.095H135.67V165.27V157.068H139.095H142.521V165.27ZM154.031 165.27V173.472H150.605H147.18V165.27V157.068H150.605H154.031V165.27ZM165.541 165.27V173.472H162.115H158.69V165.27V157.068H162.115H165.541V165.27ZM281.189 165.27V173.472H277.764H274.338V165.27V157.068H277.764H281.189V165.27ZM292.699 165.27V173.472H289.274H285.848V165.27V157.068H289.274H292.699V165.27ZM304.209 165.27V173.472H300.784H297.358V165.27V157.068H300.784H304.209V165.27ZM315.719 165.27V173.472H312.294H308.868V165.27V157.068H312.294H315.719V165.27ZM327.229 165.27V173.472H323.804H320.378V165.27V157.068H323.804H327.229V165.27ZM338.739 165.27V173.472H335.314H331.888V165.27V157.068H335.314H338.739V165.27ZM350.249 165.27V173.472H346.824H343.398V165.27V157.068H346.824H350.249V165.27ZM361.759 165.27V173.472H358.345H354.93L354.851 165.269L354.771 157.067L358.265 157.067L361.759 157.068V165.27ZM373.269 165.27V173.472H369.707H366.144V165.27V157.068H369.707H373.269V165.27ZM384.717 165.167L384.642 173.267L381.148 173.381L377.654 173.496V165.282V157.068H381.222H384.791L384.717 165.167ZM208.566 175.317V192.746H204.73H200.893V175.317V157.888H204.73H208.566V175.317ZM218.706 175.317V192.746H214.87H211.033V175.317V157.888H214.87H218.706V175.317ZM228.846 175.317V192.746H225.009H221.173V175.317V157.888H225.009H228.846V175.317ZM238.986 175.317V192.746H235.149H231.312V175.317V157.888H235.149H238.986V175.317ZM46.056 219.403V226.784H38.9307H31.8055V219.403V212.021H38.9307H46.056V219.403ZM69.6241 219.403V226.784H62.4988H55.3736V219.403V212.021H62.4988H69.6241V219.403ZM93.4041 219.505L93.4789 226.784H86.2103H78.9417V219.676C78.9417 215.766 79.0259 212.442 79.1289 212.288C79.2319 212.133 82.469 212.057 86.3227 212.117L93.3292 212.226L93.4041 219.505ZM117.034 219.403V226.784H109.909H102.784V219.403V212.021H109.909H117.034V219.403ZM140.74 219.403V226.579L133.546 226.689L126.352 226.798V219.403V212.007L133.546 212.117L140.74 212.226V219.403ZM164.445 219.403V226.784H157.319H150.194V219.403V212.021H157.319H164.445V219.403ZM289.959 219.403V226.784H282.696H275.434V219.676C275.434 215.766 275.516 212.445 275.617 212.294C275.717 212.144 278.985 212.021 282.879 212.021H289.959V219.403ZM313.527 219.403V226.784H306.402H299.276V219.403V212.021H306.402H313.527V219.403ZM337.307 219.505L337.382 226.784H330.113H322.844V219.396V212.007L330.038 212.117L337.232 212.226L337.307 219.505ZM360.937 219.403V226.784H353.812H346.687V219.403V212.021H353.812H360.937V219.403ZM384.505 219.403V226.784H377.38H370.255V219.403V212.021H377.38H384.505V219.403ZM408.347 219.403V226.784H401.085H393.823V219.676C393.823 215.766 393.905 212.445 394.006 212.294C394.106 212.144 397.374 212.021 401.268 212.021H408.347V219.403ZM263.005 225.541C265.655 229.294 269.607 233.36 272.953 235.776L275.268 237.447H270.692H266.117V261.028V284.608H219.939H173.762V261.028V237.447L169.309 237.437L164.856 237.428L167.943 235.014C171.718 232.061 174.779 228.808 177.243 225.132L179.106 222.352L219.902 222.313L260.699 222.273L263.005 225.541ZM41.113 240.967C42.1804 241.441 42.9156 242.142 43.8496 243.577C45.9592 246.818 46.056 247.665 46.056 262.92V275.996H38.9307H31.8055V262.245C31.8055 246.999 31.8038 247.016 33.6082 244.027C35.6775 240.599 38.0812 239.619 41.113 240.967ZM65.0346 241.135C66.7441 242.092 68.2667 244.268 69.0549 246.879C69.5786 248.614 69.6123 249.541 69.6181 262.361L69.6241 275.996H62.4988H55.3736V262.741C55.3736 247.364 55.4465 246.731 57.5816 243.536C59.6433 240.451 62.2897 239.598 65.0346 241.135ZM89.643 241.804C91.0799 242.974 91.8817 244.256 92.8173 246.879C93.2827 248.184 93.3369 249.573 93.4142 262.155L93.4994 275.996H86.2204H78.9417V263.373C78.9417 254.115 79.0401 250.181 79.3109 248.619C80.5232 241.625 85.4408 238.381 89.643 241.804ZM112.137 240.944C113.744 241.764 115.21 243.608 116.144 245.987L116.897 247.905L116.979 261.95L117.061 275.996H109.923H102.784L102.787 262.361C102.789 248.906 102.798 248.697 103.435 246.651C104.971 241.713 108.765 239.225 112.137 240.944ZM136.649 241.468C138.047 242.547 139.627 245.018 140.241 247.084C140.668 248.525 140.739 250.388 140.825 262.361L140.922 275.996H133.623H126.325L126.407 262.155L126.489 248.315L127.334 246.059C128.214 243.711 130.01 241.502 131.659 240.74C132.926 240.155 135.419 240.518 136.649 241.468ZM159.496 240.964C160.542 241.429 161.318 242.162 162.265 243.579C164.349 246.696 164.445 247.551 164.445 262.948V275.996L157.251 275.997H150.057L150.124 262.771C150.165 254.483 150.307 248.893 150.503 247.798C150.674 246.837 151.306 245.216 151.906 244.196C154.009 240.622 156.418 239.596 159.496 240.964ZM286.135 241.804C287.572 242.974 288.374 244.256 289.31 246.879C289.775 248.184 289.829 249.573 289.907 262.155L289.992 275.996H282.713H275.434V263.373C275.434 254.115 275.533 250.181 275.803 248.619C277.012 241.645 281.946 238.391 286.135 241.804ZM308.476 240.921C310.162 241.674 311.658 243.495 312.636 245.987L313.39 247.905L313.472 261.95L313.554 275.996H306.415H299.276L299.279 262.361C299.282 248.906 299.29 248.697 299.927 246.651C301.031 243.104 303.723 240.433 306.283 240.346C306.746 240.33 307.732 240.589 308.476 240.921ZM333.156 241.47C334.618 242.586 335.942 244.636 336.65 246.879C337.2 248.625 337.237 249.461 337.32 262.361L337.408 275.996H330.113H322.817L322.9 262.155L322.982 248.315L323.827 246.059C324.707 243.711 326.503 241.502 328.151 240.74C329.418 240.155 331.909 240.518 333.156 241.47ZM355.988 240.964C357.034 241.429 357.811 242.162 358.758 243.579C360.841 246.696 360.937 247.551 360.937 262.948V275.996H353.812H346.687V262.613C346.687 253.542 346.791 248.711 347.009 247.62C347.186 246.735 347.817 245.185 348.411 244.176C350.501 240.622 352.916 239.598 355.988 240.964ZM379.962 241.161C381.75 242.162 383.681 245.111 384.179 247.603C384.402 248.716 384.505 253.46 384.505 262.613V275.996H377.38H370.255V262.741C370.255 247.364 370.328 246.731 372.463 243.536C374.538 240.431 377.17 239.598 379.962 241.161ZM404.524 241.804C405.961 242.974 406.763 244.256 407.698 246.879C408.164 248.184 408.218 249.573 408.295 262.155L408.381 275.996H401.082H393.783L393.872 262.361C393.954 249.552 393.995 248.613 394.532 246.875C396.346 241.011 400.785 238.758 404.524 241.804ZM180.339 260.208V276.816H184.176H188.013V260.208V243.599H184.176H180.339V260.208ZM194.59 260.208V276.816H219.939H245.289V260.208V243.599H219.939H194.59V260.208ZM251.592 260.208V276.816H255.429H259.265V260.208V243.599H255.429H251.592V260.208ZM266.117 299.167V303.063H219.939H173.762V299.167V295.271H219.939H266.117V299.167ZM148.55 327.463V333H220.084H291.619L291.542 327.566L291.466 322.132L220.008 322.029L148.55 321.926V327.463Z" fill="#F23D3D"/>
</svg>
