<svg width="297" height="604" viewBox="0 0 297 604" fill="none" xmlns="http://www.w3.org/2000/svg">
<path d="M1.06396 218.865C1.06396 218.16 1.63663 217.587 2.34107 217.587H2.98043V263.361H2.34107C1.635 263.361 1.06396 262.789 1.06396 262.084V218.865Z" fill="#F23D3D"/>
<path d="M1.06396 160.742C1.06396 160.036 1.63663 159.465 2.34107 159.465H2.98043V205.239H2.34107C1.635 205.239 1.06396 204.668 1.06396 203.962V160.742Z" fill="#F23D3D"/>
<path d="M0 117.31C0 116.604 0.572662 116.032 1.2771 116.032H2.98045V138.601H1.2771C0.571035 138.601 0 138.028 0 137.323V117.31Z" fill="#F23D3D"/>
<path d="M295.084 191.186H295.723C296.427 191.186 297 191.759 297 192.463V262.082C297 262.787 296.427 263.36 295.723 263.36H295.084V191.186Z" fill="#F23D3D"/>
<path d="M2.98044 116.245V138.706" stroke="black" stroke-width="0.1309"/>
<path d="M2.98044 159.677V205.132" stroke="black" stroke-width="0.1309"/>
<path d="M241.646 0C271.159 5.92634e-05 295.084 23.9253 295.084 53.4385V549.93C295.084 579.443 271.159 603.367 241.646 603.367H56.4189C26.9058 603.367 2.97865 579.443 2.97852 549.93V53.4385C2.98014 23.9252 26.9057 0 56.4189 0H241.646ZM59.4004 4.62109C30.7927 4.62128 7.60087 27.8126 7.60254 56.4189V546.949C7.60267 575.555 30.7927 598.747 59.4004 598.747H238.665C267.271 598.747 290.463 575.557 290.463 546.949V56.4189C290.463 27.8128 267.273 4.62131 238.665 4.62109H59.4004Z" fill="#F23D3D"/>
<path d="M64.2959 600.068L68.5535 600.174V603.367H64.2959V600.068Z" fill="black" fill-opacity="0.35"/>
<path d="M291.89 63.4451H295.084V67.7026H291.89V63.4451Z" fill="black" fill-opacity="0.35"/>
<path d="M291.89 537.582H295.084V541.839H291.784L291.89 537.582Z" fill="black" fill-opacity="0.35"/>
<path d="M180.746 3.19189C180.637 4.6203 179.443 5.74611 177.987 5.74611H120.077C118.619 5.74611 117.427 4.6203 117.318 3.19189H149.032H180.746Z" fill="black" stroke="#272727" stroke-width="0.2617"/>
<path d="M229.935 0H234.193V3.29931L229.935 3.0862V0Z" fill="black" fill-opacity="0.35"/>
<path d="M2.98044 64.2959H6.17401L6.06826 68.4477L2.98044 68.5551V64.2959Z" fill="black" fill-opacity="0.35"/>
<path d="M2.98044 537.582H6.06826L6.17401 541.839H2.98044V537.582Z" fill="black" fill-opacity="0.35"/>
<path d="M178.945 24.2698C183.354 24.2698 186.93 27.844 186.93 32.2529C186.93 36.6617 183.356 40.2376 178.945 40.2376C174.537 40.2376 170.962 36.6634 170.962 32.2529C170.961 27.844 174.537 24.2698 178.945 24.2698Z" fill="#D7D7D7"/>
<path d="M118.481 20.0122H178.519C185.281 20.0122 190.761 25.4932 190.761 32.2545C190.761 39.0158 185.281 44.4968 178.519 44.4968H118.481C111.719 44.4968 106.239 39.0158 106.239 32.2545C106.239 25.4932 111.719 20.0122 118.481 20.0122Z" fill="black"/>
<path d="M175.22 36.9384C177.815 36.9384 180.011 34.8918 180.011 32.2546C180.011 29.6174 177.815 27.5708 175.22 27.5708C172.625 27.5708 170.43 29.6174 170.43 32.2546C170.429 34.8918 172.625 36.9384 175.22 36.9384Z" fill="url(#paint0_linear_1835_4052)" fill-opacity="0.38" stroke="#FFCA28" stroke-width="1.963"/>
<defs>
<linearGradient id="paint0_linear_1835_4052" x1="175.257" y1="34.5125" x2="175.191" y2="30.5337" gradientUnits="userSpaceOnUse">
<stop offset="0.0382" stop-color="#F23D3D"/>
<stop offset="1" stop-color="#27314B"/>
</linearGradient>
</defs>
</svg>
