<svg width="64" height="64" viewBox="0 0 64 64" fill="none" xmlns="http://www.w3.org/2000/svg">
<path d="M61.8749 29.6657C61.4291 29.6628 60.9954 29.5208 60.6344 29.2593L31.9316 8.76954L3.22873 29.2593C2.76824 29.5321 2.22225 29.6222 1.69853 29.5121C1.17481 29.4019 0.711423 29.0994 0.399846 28.6643C0.0882697 28.2291 -0.0488531 27.693 0.0155476 27.1617C0.0799482 26.6304 0.341192 26.1426 0.747707 25.7945L30.691 4.40637C31.0533 4.14847 31.4869 4.00987 31.9316 4.00987C32.3762 4.00987 32.8098 4.14847 33.1721 4.40637L63.1154 25.7945C63.4806 26.0588 63.7529 26.4318 63.8934 26.8602C64.034 27.2885 64.0356 27.7503 63.898 28.1796C63.7604 28.6089 63.4907 28.9838 63.1274 29.2507C62.7641 29.5176 62.3257 29.6628 61.8749 29.6657Z" fill="white"/>
<path d="M8.40465 16.8329C7.8374 16.8329 7.29339 16.6075 6.89228 16.2064C6.49118 15.8053 6.26584 15.2613 6.26584 14.694V6.13881C6.26584 5.57156 6.49118 5.02755 6.89228 4.62644C7.29339 4.22534 7.8374 4 8.40465 4H16.9599C17.5271 4 18.0711 4.22534 18.4723 4.62644C18.8734 5.02755 19.0987 5.57156 19.0987 6.13881C19.0987 6.70606 18.8734 7.25007 18.4723 7.65118C18.0711 8.05228 17.5271 8.27762 16.9599 8.27762H10.5435V14.694C10.5435 15.2613 10.3181 15.8053 9.91701 16.2064C9.51591 16.6075 8.9719 16.8329 8.40465 16.8329Z" fill="white"/>
<path d="M51.1808 59.609H40.4868C39.9195 59.609 39.3755 59.3837 38.9744 58.9826C38.5733 58.5815 38.348 58.0375 38.348 57.4702V42.4986H25.5151V57.4702C25.5151 58.0375 25.2898 58.5815 24.8887 58.9826C24.4876 59.3837 23.9436 59.609 23.3763 59.609H12.6823C10.9805 59.609 9.34848 58.933 8.14517 57.7297C6.94185 56.5264 6.26584 54.8944 6.26584 53.1926V31.8045C6.26584 31.2373 6.49118 30.6933 6.89228 30.2922C7.29339 29.891 7.8374 29.6657 8.40465 29.6657C8.9719 29.6657 9.51591 29.891 9.91701 30.2922C10.3181 30.6933 10.5435 31.2373 10.5435 31.8045V53.1926C10.5435 53.7599 10.7688 54.3039 11.1699 54.705C11.571 55.1061 12.115 55.3314 12.6823 55.3314H21.2375V40.3598C21.2375 39.7925 21.4628 39.2485 21.8639 38.8474C22.2651 38.4463 22.8091 38.2209 23.3763 38.2209H40.4868C41.054 38.2209 41.5981 38.4463 41.9992 38.8474C42.4003 39.2485 42.6256 39.7925 42.6256 40.3598V55.3314H51.1808C51.7481 55.3314 52.2921 55.1061 52.6932 54.705C53.0943 54.3039 53.3196 53.7599 53.3196 53.1926V31.8045C53.3196 31.2373 53.545 30.6933 53.9461 30.2922C54.3472 29.891 54.8912 29.6657 55.4585 29.6657C56.0257 29.6657 56.5697 29.891 56.9708 30.2922C57.3719 30.6933 57.5973 31.2373 57.5973 31.8045V53.1926C57.5973 54.8944 56.9213 56.5264 55.7179 57.7297C54.5146 58.933 52.8826 59.609 51.1808 59.609Z" fill="white"/>
</svg>
