<svg width="1080" height="1080" viewBox="0 0 1080 1080" fill="none" xmlns="http://www.w3.org/2000/svg">
<rect width="1080" height="1080" rx="540" fill="#FFCA28"/>
<path d="M613.222 768.037C610.149 768.035 607.156 767.067 604.664 765.269C602.173 763.471 600.31 760.936 599.339 758.021L528.286 545.155L328.072 474.307C325.172 473.277 322.67 471.36 320.921 468.827C319.172 466.294 318.266 463.275 318.331 460.198C318.396 457.121 319.428 454.143 321.282 451.686C323.136 449.229 325.717 447.419 328.658 446.512L742.734 318.963C745.29 318.178 748.012 318.109 750.604 318.762C753.197 319.414 755.562 320.764 757.442 322.666C759.322 324.567 760.645 326.946 761.269 329.546C761.893 332.146 761.793 334.867 760.98 337.414L627.163 757.816C626.229 760.764 624.385 763.341 621.897 765.177C619.408 767.014 616.402 768.015 613.309 768.037H613.222ZM379.59 461.479L544.892 520.055C546.989 520.799 548.888 522.012 550.446 523.6C552.004 525.189 553.18 527.111 553.884 529.222L612.899 706.24L724.516 355.192L379.59 461.479Z" fill="#545454"/>
<path d="M540.003 548.315C538.04 548.325 536.095 547.936 534.288 547.17C532.48 546.405 530.847 545.28 529.488 543.863C526.785 541.075 525.301 537.327 525.361 533.443C525.422 529.56 527.022 525.86 529.811 523.157L633.315 422.845C634.696 421.499 636.328 420.438 638.119 419.722C639.91 419.007 641.824 418.652 643.752 418.676C645.68 418.7 647.585 419.104 649.357 419.865C651.129 420.626 652.734 421.728 654.08 423.108C655.426 424.489 656.487 426.122 657.203 427.912C657.918 429.703 658.273 431.617 658.249 433.546C658.224 435.474 657.82 437.378 657.06 439.151C656.299 440.923 655.197 442.528 653.817 443.874L550.283 544.215C547.525 546.874 543.834 548.346 540.003 548.315Z" fill="#545454"/>
<path d="M466.783 761.678C463.77 761.678 460.83 760.749 458.365 759.017C455.9 757.285 454.028 754.834 453.007 752C451.985 749.165 451.863 746.085 452.656 743.178C453.449 740.272 455.12 737.681 457.44 735.758L530.66 675.161C533.654 672.718 537.493 671.557 541.34 671.932C545.187 672.307 548.729 674.188 551.195 677.164C553.661 680.14 554.85 683.97 554.504 687.819C554.157 691.669 552.303 695.225 549.346 697.713L476.126 758.31C473.499 760.487 470.194 761.678 466.783 761.678Z" fill="#545454"/>
<path d="M332.959 761.686C330.062 761.686 327.229 760.825 324.821 759.214C322.412 757.603 320.536 755.314 319.429 752.636C318.322 749.958 318.034 747.012 318.603 744.171C319.171 741.329 320.569 738.72 322.621 736.674L456.409 602.857C459.159 600.107 462.888 598.562 466.777 598.562C470.666 598.562 474.395 600.107 477.145 602.857C479.895 605.606 481.439 609.336 481.439 613.225C481.439 617.113 479.895 620.843 477.145 623.593L343.327 757.381C341.967 758.745 340.351 759.828 338.572 760.566C336.793 761.305 334.886 761.686 332.959 761.686Z" fill="#545454"/>
<path d="M332.962 627.864C330.182 627.864 327.46 627.073 325.113 625.583C322.766 624.093 320.892 621.966 319.71 619.45C318.527 616.934 318.085 614.134 318.435 611.376C318.785 608.619 319.912 606.018 321.686 603.877L382.283 530.657C384.771 527.699 388.327 525.845 392.177 525.499C396.026 525.153 399.856 526.342 402.832 528.808C405.808 531.274 407.689 534.816 408.064 538.663C408.439 542.509 407.278 546.348 404.835 549.343L344.238 622.563C342.864 624.221 341.141 625.556 339.192 626.473C337.243 627.389 335.116 627.864 332.962 627.864Z" fill="#545454"/>
</svg>
