<svg width="40" height="40" viewBox="0 0 40 40" fill="none" xmlns="http://www.w3.org/2000/svg">
<rect width="40" height="40" rx="20" fill="#F23D3D"/>
<path d="M18.5529 27.105C20.4506 27.1046 22.2936 26.4694 23.7884 25.3004L28.4883 30L30 28.4883L25.3002 23.7888C26.4698 22.2938 27.1054 20.4505 27.1059 18.5525C27.1059 13.8369 23.2688 10 18.5529 10C13.8371 10 10 13.8369 10 18.5525C10 23.2681 13.8371 27.105 18.5529 27.105ZM18.5529 12.1381C22.0907 12.1381 24.9677 15.015 24.9677 18.5525C24.9677 22.09 22.0907 24.9669 18.5529 24.9669C15.0152 24.9669 12.1382 22.09 12.1382 18.5525C12.1382 15.015 15.0152 12.1381 18.5529 12.1381Z" fill="white"/>
</svg>
