<svg width="64" height="64" viewBox="0 0 64 64" fill="none" xmlns="http://www.w3.org/2000/svg">
<rect width="64" height="64" rx="32" fill="white"/>
<g clip-path="url(#clip0_596_4089)">
<path d="M26.7486 47.0001H22.0684C20.9261 47.0001 20 45.8426 20 44.4146V19.6099C20 18.182 20.9261 17.0244 22.0684 17.0244H26.7486C27.891 17.0244 28.817 18.182 28.817 19.6099V44.4146C28.817 45.8426 27.891 47.0001 26.7486 47.0001Z" fill="#F23D3D"/>
<path d="M41.6071 46.9757H36.9269C35.7846 46.9757 34.8585 45.8181 34.8585 44.3902V19.5855C34.8585 18.1576 35.7846 17 36.9269 17H41.6071C42.7495 17 43.6755 18.1576 43.6755 19.5855V44.3902C43.6755 45.8181 42.7495 46.9757 41.6071 46.9757Z" fill="#F23D3D"/>
<path d="M27.1071 17.0693C27.5109 17.5412 27.767 18.2079 27.767 18.9534V43.758C27.767 45.186 26.841 46.3436 25.6986 46.3436H21.0184C20.8956 46.3436 20.7769 46.3239 20.6599 46.2983C21.0295 46.7301 21.5224 46.9998 22.0684 46.9998H26.7486C27.8909 46.9998 28.817 45.8422 28.817 44.4142V19.6096C28.817 18.3352 28.0778 17.2826 27.1071 17.0693Z" fill="#F23D3D"/>
<path d="M41.9657 17.0454C42.3695 17.5172 42.6256 18.184 42.6256 18.9294V43.7341C42.6256 45.162 41.6996 46.3196 40.5572 46.3196H35.877C35.7542 46.3196 35.6355 46.2999 35.5185 46.2743C35.888 46.7061 36.381 46.9759 36.927 46.9759H41.6072C42.7495 46.9759 43.6756 45.8183 43.6756 44.3903V19.5857C43.6756 18.3113 42.9364 17.258 41.9657 17.0454Z" fill="#F23D3D"/>
<path d="M26.7486 47.0001H22.0684C20.9261 47.0001 20 45.8426 20 44.4146V19.6099C20 18.182 20.9261 17.0244 22.0684 17.0244H26.7486C27.891 17.0244 28.817 18.182 28.817 19.6099V44.4146C28.817 45.8426 27.891 47.0001 26.7486 47.0001Z" stroke="#F23D3D" stroke-miterlimit="10"/>
<path d="M41.6071 46.9757H36.9269C35.7846 46.9757 34.8585 45.8181 34.8585 44.3902V19.5855C34.8585 18.1576 35.7846 17 36.9269 17H41.6071C42.7495 17 43.6755 18.1576 43.6755 19.5855V44.3902C43.6755 45.8181 42.7495 46.9757 41.6071 46.9757Z" stroke="#F23D3D" stroke-miterlimit="10"/>
</g>
<defs>
<clipPath id="clip0_596_4089">
<rect width="24" height="30" fill="white" transform="translate(20 17)"/>
</clipPath>
</defs>
</svg>
