<svg width="64" height="64" viewBox="0 0 64 64" fill="none" xmlns="http://www.w3.org/2000/svg">
<rect width="64" height="64" rx="32" fill="white"/>
<path d="M34.9571 21.9553C34.8202 21.8914 34.6687 21.8649 34.5182 21.8785C34.3677 21.892 34.2234 21.9451 34.1 22.0324L27.4314 27.0038H20.8571C20.6298 27.0038 20.4118 27.0941 20.2511 27.2549C20.0903 27.4156 20 27.6336 20 27.861V36.4324C20 36.6597 20.0903 36.8777 20.2511 37.0385C20.4118 37.1992 20.6298 37.2895 20.8571 37.2895H27.4314L34.0571 42.261C34.1845 42.3565 34.3359 42.4146 34.4945 42.4289C34.653 42.4432 34.8124 42.4131 34.9548 42.3419C35.0971 42.2707 35.2169 42.1613 35.3006 42.0259C35.3842 41.8905 35.4286 41.7344 35.4286 41.5753V22.7181C35.4281 22.5598 35.3838 22.4048 35.3006 22.2701C35.2174 22.1355 35.0985 22.0265 34.9571 21.9553Z" fill="#F23D3D"/>
<path d="M38 28.7183C37.7727 28.7183 37.5546 28.8086 37.3939 28.9693C37.2332 29.1301 37.1429 29.3481 37.1429 29.5754V34.7183C37.1429 34.9456 37.2332 35.1636 37.3939 35.3244C37.5546 35.4851 37.7727 35.5754 38 35.5754C38.2273 35.5754 38.4453 35.4851 38.6061 35.3244C38.7668 35.1636 38.8571 34.9456 38.8571 34.7183V29.5754C38.8571 29.3481 38.7668 29.1301 38.6061 28.9693C38.4453 28.8086 38.2273 28.7183 38 28.7183Z" fill="#F23D3D"/>
<path d="M40.5714 27.0039C40.3441 27.0039 40.1261 27.0942 39.9653 27.255C39.8046 27.4157 39.7143 27.6337 39.7143 27.861V36.4325C39.7143 36.6598 39.8046 36.8778 39.9653 37.0386C40.1261 37.1993 40.3441 37.2896 40.5714 37.2896C40.7988 37.2896 41.0168 37.1993 41.1775 37.0386C41.3383 36.8778 41.4286 36.6598 41.4286 36.4325V27.861C41.4286 27.6337 41.3383 27.4157 41.1775 27.255C41.0168 27.0942 40.7988 27.0039 40.5714 27.0039Z" fill="#F23D3D"/>
<path d="M43.1428 25.2896C42.9155 25.2896 42.6975 25.3799 42.5368 25.5406C42.376 25.7013 42.2857 25.9194 42.2857 26.1467V38.1467C42.2857 38.374 42.376 38.592 42.5368 38.7528C42.6975 38.9135 42.9155 39.0038 43.1428 39.0038C43.3702 39.0038 43.5882 38.9135 43.7489 38.7528C43.9097 38.592 44 38.374 44 38.1467V26.1467C44 25.9194 43.9097 25.7013 43.7489 25.5406C43.5882 25.3799 43.3702 25.2896 43.1428 25.2896Z" fill="#F23D3D"/>
</svg>
