<svg width="64" height="64" viewBox="0 0 64 64" fill="none" xmlns="http://www.w3.org/2000/svg">
<rect width="64" height="64" rx="32" fill="white"/>
<g clip-path="url(#clip0_596_4093)">
<path d="M34.989 21.9554C34.8517 21.8914 34.7 21.8649 34.5491 21.8785C34.3983 21.892 34.2537 21.9453 34.13 22.0327L27.4473 27.0148H20.859C20.6312 27.0148 20.4127 27.1053 20.2516 27.2663C20.0905 27.4274 20 27.6459 20 27.8737V36.4634C20 36.6912 20.0905 36.9097 20.2516 37.0708C20.4127 37.2319 20.6312 37.3224 20.859 37.3224H27.4473L34.0871 42.3044C34.2147 42.4001 34.3665 42.4584 34.5253 42.4727C34.6842 42.4871 34.8439 42.4569 34.9866 42.3855C35.1293 42.3142 35.2493 42.2045 35.3332 42.0688C35.417 41.9331 35.4615 41.7768 35.4615 41.6172V22.7199C35.461 22.5613 35.4166 22.4059 35.3332 22.271C35.2498 22.136 35.1307 22.0268 34.989 21.9554Z" fill="#F23D3D"/>
<path d="M41.8264 32.1684L43.7934 30.2014C43.9342 30.0371 44.0077 29.8257 43.9993 29.6095C43.991 29.3933 43.9014 29.1883 43.7484 29.0353C43.5954 28.8823 43.3903 28.7927 43.1742 28.7843C42.958 28.776 42.7466 28.8495 42.5823 28.9902L40.6152 30.9573L38.6482 28.9902C38.4839 28.8495 38.2725 28.776 38.0563 28.7843C37.8401 28.7927 37.6351 28.8823 37.4821 29.0353C37.3291 29.1883 37.2395 29.3933 37.2312 29.6095C37.2228 29.8257 37.2963 30.0371 37.4371 30.2014L39.4041 32.1684L37.4371 34.1355C37.3471 34.2125 37.2741 34.3072 37.2225 34.4138C37.171 34.5204 37.142 34.6364 37.1375 34.7547C37.1329 34.873 37.1528 34.991 37.196 35.1012C37.2392 35.2115 37.3047 35.3116 37.3884 35.3953C37.4721 35.479 37.5722 35.5445 37.6824 35.5877C37.7927 35.6309 37.9106 35.6508 38.0289 35.6462C38.1472 35.6416 38.2633 35.6127 38.3699 35.5611C38.4764 35.5096 38.5712 35.4365 38.6482 35.3466L40.6152 33.3796L42.5823 35.3466C42.7466 35.4873 42.958 35.5609 43.1742 35.5525C43.3903 35.5442 43.5954 35.4545 43.7484 35.3016C43.9014 35.1486 43.991 34.9435 43.9993 34.7273C44.0077 34.5112 43.9342 34.2998 43.7934 34.1355L41.8264 32.1684Z" fill="#F23D3D"/>
</g>
<defs>
<clipPath id="clip0_596_4093">
<rect width="24" height="24" fill="white" transform="translate(20 20)"/>
</clipPath>
</defs>
</svg>
