<svg width="64" height="64" viewBox="0 0 64 64" fill="none" xmlns="http://www.w3.org/2000/svg">
<g clip-path="url(#clip0_269_667)">
<path d="M64 10.6674C64 5.0624 58.9397 0 53.3333 0H10.6667C5.06027 0 0 5.0624 0 10.6674V53.3326C0 58.9376 5.06027 64 10.6674 64H32V39.8222H24.1778V29.1556H32V24.9998C32 17.8325 37.3817 11.3778 44 11.3778H52.6222V22.0444H44C43.0564 22.0444 41.9556 23.19 41.9556 24.906V29.1556H52.6222V39.8222H41.9556V64H53.3333C58.9397 64 64 58.9376 64 53.3326V10.6674Z" fill="white"/>
</g>
<defs>
<clipPath id="clip0_269_667">
<rect width="64" height="64" fill="white"/>
</clipPath>
</defs>
</svg>
