<svg width="27" height="36" viewBox="0 0 27 36" fill="none" xmlns="http://www.w3.org/2000/svg">
<path d="M26 36H0V0H26V36Z" stroke="#FFFAEA"/>
<g clip-path="url(#clip0_1656_2224)">
<path d="M9.33398 2.31642C9.79102 1.88869 10.5 1.89455 10.957 2.32228C12.5742 3.83986 14.0918 5.47462 15.5098 7.24416C16.1543 6.40041 16.8867 5.48048 17.6777 4.73048C18.1406 4.29689 18.8555 4.29689 19.3184 4.73634C21.3457 6.66994 23.0625 9.22462 24.2695 11.6504C25.459 14.041 26.25 16.4844 26.25 18.207C26.25 25.6836 20.4023 32 13.125 32C5.76563 32 0 25.6778 0 18.2012C0 15.9512 1.04297 13.2031 2.66016 10.4844C4.29492 7.72462 6.60352 4.84767 9.33398 2.31642ZM13.2246 26.375C14.707 26.375 16.0195 25.9649 17.2559 25.1445C19.7227 23.4219 20.3848 19.9766 18.9023 17.2695C18.6387 16.7422 17.9648 16.707 17.584 17.1524L16.1074 18.8692C15.7207 19.3145 15.0234 19.3027 14.6602 18.8399C13.6934 17.6094 11.9648 15.4121 10.9805 14.1641C10.6113 13.6953 9.9082 13.6895 9.5332 14.1582C7.55273 16.6485 6.55664 18.2188 6.55664 19.9824C6.5625 23.9961 9.52734 26.375 13.2246 26.375Z" fill="#F23D3D"/>
</g>
<defs>
<clipPath id="clip0_1656_2224">
<path d="M0 2H26.25V32H0V2Z" fill="white"/>
</clipPath>
</defs>
</svg>
