<svg width="1080" height="1080" viewBox="0 0 1080 1080" fill="none" xmlns="http://www.w3.org/2000/svg">
<path d="M540 1038.46C815.292 1038.46 1038.46 815.292 1038.46 540C1038.46 264.707 815.292 41.5386 540 41.5386C264.707 41.5386 41.5386 264.707 41.5386 540C41.5386 815.292 264.707 1038.46 540 1038.46Z" stroke="#545454" stroke-width="64" stroke-miterlimit="10"/>
<path d="M540 373.848C569.825 373.848 594 349.671 594 319.848C594 290.025 569.825 265.847 540 265.847C510.175 265.847 486 290.025 486 319.848C486 349.671 510.175 373.848 540 373.848Z" fill="#545454"/>
<path d="M540 818.308C506.769 818.308 481.846 793.385 481.846 764.308V481.846C481.846 452.769 506.769 427.846 535.846 427.846H540C569.077 427.846 594 452.769 594 481.846V764.308C594 793.385 573.231 818.308 540 818.308Z" fill="#545454"/>
</svg>
