<svg width="64" height="64" viewBox="0 0 64 64" fill="none" xmlns="http://www.w3.org/2000/svg">
<g clip-path="url(#clip0_269_738)">
<path fill-rule="evenodd" clip-rule="evenodd" d="M32.0191 0.00759144C36.4476 0.00759144 40.8764 -0.0129086 45.3048 0.0134664C49.4712 0.0383414 53.3841 0.988466 56.7745 3.52128C61.202 6.82897 63.4677 11.3472 63.8893 16.7991C64.0378 18.7178 63.9917 20.6533 63.9942 22.5811C64.0042 30.0573 63.9987 37.5335 63.9978 45.0098C63.9975 48.0633 63.5729 51.0447 62.2808 53.8368C59.6597 59.5008 55.0876 62.5972 49.0553 63.6702C47.7975 63.8939 46.4999 63.9775 45.2203 63.9813C36.387 64.0073 27.5535 64.0013 18.7202 63.9922C14.1267 63.9875 9.92559 62.7745 6.34553 59.7943C2.70822 56.7668 0.788844 52.8072 0.191781 48.1648C0.0887814 47.3642 0.0257189 46.552 0.0249689 45.7452C0.0163439 36.4595 -0.0397186 27.1732 0.0512814 17.8883C0.101031 12.8155 1.79016 8.31772 5.56653 4.77365C8.69897 1.83415 12.5065 0.298216 16.7377 0.147904C21.8255 -0.032846 26.9247 0.105091 32.0189 0.105091C32.019 0.0725289 32.019 0.0400289 32.0191 0.00759144ZM31.9691 58.0855C36.2303 58.0855 40.4915 58.1027 44.7525 58.0738C45.8668 58.0662 46.9974 58.0108 48.0908 57.8131C52.2675 57.058 55.443 54.9631 57.1071 50.8962C57.9526 48.8303 58.2287 46.6135 58.2647 44.4665C58.4045 36.137 58.3257 27.8038 58.3159 19.472C58.3148 18.5694 58.305 17.6567 58.1773 16.7661C57.6047 12.7668 55.8709 9.4889 52.1903 7.49553C50.136 6.38297 47.9059 5.9629 45.5878 5.96215C36.6609 5.95953 27.734 5.9569 18.8071 5.96759C18.0003 5.96859 17.1865 6.01322 16.3882 6.1254C11.8416 6.76378 8.49266 9.00453 6.81666 13.4129C6.14028 15.1918 5.92416 17.0559 5.92378 18.9485C5.92247 27.6612 5.91409 36.3736 5.93522 45.0865C5.93778 46.1524 6.01728 47.2337 6.20809 48.2811C7.05453 52.9283 9.64584 56.1224 14.2608 57.4068C15.7987 57.8346 17.4426 58.0235 19.0434 58.0558C23.3505 58.1423 27.6603 58.0852 31.9691 58.0855Z" fill="white"/>
<path fill-rule="evenodd" clip-rule="evenodd" d="M48.494 31.898C48.49 41.0091 41.0561 48.4197 31.9426 48.3975C22.8257 48.3754 15.4836 41.0165 15.4783 31.8957C15.473 22.785 22.8957 15.3737 32.016 15.3837C41.0576 15.3934 48.498 22.8503 48.494 31.898ZM31.9924 42.4492C37.8053 42.4537 42.593 37.6695 42.5829 31.8664C42.5728 26.1035 37.7974 21.3191 32.0318 21.2957C26.2272 21.2721 21.4419 26.0416 21.4296 31.8628C21.4173 37.6923 26.1589 42.4446 31.9924 42.4492Z" fill="white"/>
<path fill-rule="evenodd" clip-rule="evenodd" d="M49.1058 18.7086C47.0421 18.6902 45.4154 17.0388 45.422 14.9691C45.4285 12.8759 47.0961 11.2347 49.2015 11.2491C51.2417 11.2632 52.9043 12.9471 52.8981 14.9931C52.8919 17.0681 51.1984 18.7273 49.1058 18.7086Z" fill="white"/>
</g>
<defs>
<clipPath id="clip0_269_738">
<rect width="64" height="64" fill="white"/>
</clipPath>
</defs>
</svg>
