<svg width="57" height="45" viewBox="0 0 57 45" fill="none" xmlns="http://www.w3.org/2000/svg">
<path d="M52.6852 23.1427C57.982 17.8458 57.982 9.26767 52.6852 3.9708C47.9977 -0.716702 40.6102 -1.32608 35.2195 2.52705L35.0695 2.63017C33.7195 3.5958 33.4102 5.4708 34.3758 6.81142C35.3414 8.15205 37.2164 8.4708 38.557 7.50517L38.707 7.40205C41.7164 5.25517 45.832 5.59267 48.4383 8.2083C51.3914 11.1614 51.3914 15.9427 48.4383 18.8958L37.9195 29.4333C34.9664 32.3864 30.1852 32.3864 27.232 29.4333C24.6164 26.8177 24.2789 22.702 26.4258 19.702L26.5289 19.552C27.4945 18.202 27.1758 16.327 25.8352 15.3708C24.4945 14.4145 22.6102 14.7239 21.6539 16.0645L21.5508 16.2146C17.6883 21.5958 18.2977 28.9833 22.9852 33.6708C28.282 38.9677 36.8602 38.9677 42.157 33.6708L52.6852 23.1427ZM3.97266 20.9489C-1.32422 26.2458 -1.32422 34.8239 3.97266 40.1208C8.66016 44.8083 16.0477 45.4177 21.4383 41.5646L21.5883 41.4614C22.9383 40.4958 23.2477 38.6208 22.282 37.2802C21.3164 35.9396 19.4414 35.6208 18.1008 36.5864L17.9508 36.6896C14.9414 38.8364 10.8258 38.4989 8.21953 35.8833C5.26641 32.9208 5.26641 28.1396 8.21953 25.1864L18.7383 14.6583C21.6914 11.7052 26.4727 11.7052 29.4258 14.6583C32.0414 17.2739 32.3789 21.3896 30.232 24.3989L30.1289 24.5489C29.1633 25.8989 29.482 27.7739 30.8227 28.7302C32.1633 29.6864 34.0477 29.3771 35.0039 28.0364L35.107 27.8864C38.9695 22.4958 38.3602 15.1083 33.6727 10.4208C28.3758 5.12392 19.7977 5.12392 14.5008 10.4208L3.97266 20.9489Z" fill="white"/>
</svg>
