<svg width="64" height="64" viewBox="0 0 64 64" fill="none" xmlns="http://www.w3.org/2000/svg">
<g clip-path="url(#clip0_376_2560)">
<path fill-rule="evenodd" clip-rule="evenodd" d="M32.0001 0C19.48 0 9.29034 10.3928 9.29034 23.2259C9.29034 27.0381 11.227 31.6781 14.0579 36.2614C20.2525 46.2919 30.5711 56.1995 30.5711 56.1995C31.3697 56.9665 32.6306 56.9665 33.4292 56.1995C33.4292 56.1995 43.7478 46.2919 49.9424 36.2614C52.7733 31.6781 54.7099 27.0381 54.7099 23.2259C54.7099 10.3928 44.5202 0 32.0001 0ZM32.0001 4.12905C42.2694 4.12905 50.5809 12.6999 50.5809 23.2259C50.5809 27.5645 47.3864 33.052 43.7055 38.1442C39.4475 44.0353 34.4131 49.3535 32.0001 51.8C29.5872 49.3535 24.5527 44.0353 20.2948 38.1442C16.6139 33.052 13.4194 27.5645 13.4194 23.2259C13.4194 12.6999 21.7309 4.12905 32.0001 4.12905Z" fill="white"/>
<path fill-rule="evenodd" clip-rule="evenodd" d="M32.0001 10.3226C28.5815 10.3226 25.4847 11.7095 23.2429 13.9525C20.9999 16.1944 19.613 19.2912 19.613 22.7098C19.613 29.547 25.1629 35.0969 32.0001 35.0969C38.8374 35.0969 44.3873 29.547 44.3873 22.7098C44.3873 15.8726 38.8374 10.3226 32.0001 10.3226ZM32.0001 14.4517C36.5579 14.4517 40.2582 18.152 40.2582 22.7098C40.2582 27.2675 36.5579 30.9679 32.0001 30.9679C27.4424 30.9679 23.742 27.2675 23.742 22.7098C23.742 20.4315 24.6674 18.367 26.1624 16.872C27.6573 15.3771 29.7219 14.4517 32.0001 14.4517Z" fill="white"/>
<path fill-rule="evenodd" clip-rule="evenodd" d="M59.7075 54.7719C59.6198 54.8669 59.5129 54.9732 59.4167 55.0492C58.9837 55.3892 58.4117 55.7124 57.7253 56.03C52.9046 58.2598 43.1841 59.8713 32 59.8713C20.8159 59.8713 11.0954 58.2598 6.2747 56.03C5.58832 55.7124 5.01634 55.3892 4.58334 55.0492C4.48712 54.9732 4.38021 54.8669 4.29254 54.7719C4.53737 54.5907 4.95754 54.2989 5.34777 54.121C7.57048 53.1056 11.2857 52.3329 15.9396 51.6496C17.0675 51.4841 17.8491 50.4352 17.6833 49.308C17.5176 48.1807 16.4688 47.3991 15.3409 47.5646C9.23083 48.4603 4.59083 49.6256 2.34352 51.0558C0.687448 52.1093 0 53.4143 0 54.7093C0 55.5949 0.318599 56.503 1.05309 57.3663C1.7523 58.1882 2.92085 59.0281 4.54165 59.7773C9.68949 62.1593 20.0536 64 32 64C43.9464 64 54.3105 62.1593 59.4584 59.7773C61.0791 59.0281 62.2477 58.1882 62.9469 57.3663C63.6814 56.503 64 55.5949 64 54.7093C64 53.4199 63.32 52.1238 61.6821 51.0737C59.4658 49.6535 54.89 48.4927 48.8516 47.5925C47.7247 47.4248 46.6727 48.2031 46.5048 49.3303C46.337 50.4576 47.1153 51.5087 48.2422 51.6765C52.8341 52.3609 56.4947 53.1291 58.6822 54.1378C59.0596 54.3112 59.4669 54.5941 59.7075 54.7719Z" fill="white"/>
</g>
<defs>
<clipPath id="clip0_376_2560">
<rect width="64" height="64" fill="white"/>
</clipPath>
</defs>
</svg>
