<svg width="56" height="56" viewBox="0 0 56 56" fill="none" xmlns="http://www.w3.org/2000/svg">
<path d="M28 0C43.464 0 56 12.536 56 28C56 43.464 43.464 56 28 56C12.536 56 0 43.464 0 28C0 12.536 12.536 0 28 0Z" fill="#FEECEC"/>
<path d="M28 0C43.464 0 56 12.536 56 28C56 43.464 43.464 56 28 56C12.536 56 0 43.464 0 28C0 12.536 12.536 0 28 0Z" stroke="#FEECEC"/>
<path d="M37 44H19V12H37V44Z" stroke="#FEECEC"/>
<g clip-path="url(#clip0_559_3637)">
<path d="M29.1109 38.4C31.5156 35.3906 37 28.0969 37 24C37 19.0312 32.9688 15 28 15C23.0312 15 19 19.0312 19 24C19 28.0969 24.4844 35.3906 26.8891 38.4C27.4656 39.1172 28.5344 39.1172 29.1109 38.4ZM28 21C28.7956 21 29.5587 21.3161 30.1213 21.8787C30.6839 22.4413 31 23.2044 31 24C31 24.7956 30.6839 25.5587 30.1213 26.1213C29.5587 26.6839 28.7956 27 28 27C27.2044 27 26.4413 26.6839 25.8787 26.1213C25.3161 25.5587 25 24.7956 25 24C25 23.2044 25.3161 22.4413 25.8787 21.8787C26.4413 21.3161 27.2044 21 28 21Z" fill="#F23D3D"/>
</g>
<defs>
<clipPath id="clip0_559_3637">
<path d="M19 15H37V39H19V15Z" fill="white"/>
</clipPath>
</defs>
</svg>
