<svg width="64" height="64" viewBox="0 0 64 64" fill="none" xmlns="http://www.w3.org/2000/svg">
<path d="M32 0C49.6731 0 64 14.3269 64 32C64 49.6731 49.6731 64 32 64C14.3269 64 0 49.6731 0 32C0 14.3269 14.3269 0 32 0Z" fill="#FFFAEA"/>
<path d="M32 0C49.6731 0 64 14.3269 64 32C64 49.6731 49.6731 64 32 64C14.3269 64 0 49.6731 0 32C0 14.3269 14.3269 0 32 0Z" stroke="#FFFAEA"/>
<path d="M47 50H17V14H47V50Z" stroke="#FFFAEA"/>
<g clip-path="url(#clip0_596_5161)">
<path d="M26.1756 38.5527L24.365 36.7422C23.867 36.2441 23.6912 35.5234 23.9139 34.8554C24.0897 34.334 24.324 33.6543 24.6053 32.875H18.4061C17.9022 32.875 17.4334 32.6054 17.1815 32.166C16.9295 31.7265 16.9354 31.1875 17.1932 30.7539L20.2693 25.5683C21.0311 24.2851 22.408 23.5 23.8963 23.5H28.7186C28.8592 23.2656 28.9998 23.0488 29.1404 22.8379C33.9393 15.7597 41.0877 15.5254 45.3533 16.3105C46.033 16.4336 46.5604 16.9668 46.6893 17.6465C47.4744 21.9179 47.2342 29.0605 40.1619 33.8593C39.9568 34 39.7342 34.1406 39.4998 34.2812V39.1035C39.4998 40.5918 38.7147 41.9746 37.4315 42.7304L32.2459 45.8066C31.8123 46.0644 31.2733 46.0703 30.8338 45.8183C30.3943 45.5664 30.1248 45.1035 30.1248 44.5937V38.3125C29.2986 38.5996 28.5779 38.834 28.033 39.0097C27.3768 39.2207 26.6619 39.039 26.1697 38.5527H26.1756ZM39.4998 25.8437C40.1214 25.8437 40.7176 25.5968 41.1571 25.1573C41.5966 24.7177 41.8436 24.1216 41.8436 23.5C41.8436 22.8784 41.5966 22.2822 41.1571 21.8427C40.7176 21.4032 40.1214 21.1562 39.4998 21.1562C38.8782 21.1562 38.2821 21.4032 37.8425 21.8427C37.403 22.2822 37.1561 22.8784 37.1561 23.5C37.1561 24.1216 37.403 24.7177 37.8425 25.1573C38.2821 25.5968 38.8782 25.8437 39.4998 25.8437Z" fill="#FFCA28"/>
</g>
<defs>
<clipPath id="clip0_596_5161">
<path d="M17 16H47V46H17V16Z" fill="white"/>
</clipPath>
</defs>
</svg>
