<svg width="64" height="64" viewBox="0 0 64 64" fill="none" xmlns="http://www.w3.org/2000/svg">
<g clip-path="url(#clip0_376_2580)">
<path d="M59.077 2.00002H4.92319C3.61797 2.00152 2.36663 2.52313 1.4437 3.45041C0.52077 4.3777 0.00161145 5.63495 0.000118717 6.94633V56.0459C-0.00552592 56.989 0.259878 57.9138 0.76447 58.7091C1.26906 59.5045 1.9914 60.1366 2.84477 60.5297C3.49939 60.8382 4.21336 60.9987 4.93641 61C6.09234 60.9976 7.21004 60.5839 8.09115 59.8321L17.8622 51.5796L18.1798 51.4632H59.077C60.3822 51.4617 61.6335 50.9401 62.5565 50.0128C63.4794 49.0855 63.9986 47.8283 64 46.5169V6.94635C63.9985 5.63496 63.4794 4.37771 62.5564 3.45042C61.6335 2.52313 60.3822 2.00152 59.077 2.00002ZM59.077 46.5169H17.7453C17.4578 46.5168 17.1726 46.5674 16.9024 46.6663L15.7681 47.0817C15.498 47.1806 15.2472 47.3263 15.0271 47.5122L4.92319 56.0459V6.94633H59.077V46.5169ZM19.6924 21.7851C19.6924 21.1292 19.9517 20.5002 20.4134 20.0363C20.875 19.5725 21.5011 19.312 22.1539 19.312H41.8462C42.4991 19.312 43.1252 19.5725 43.5868 20.0363C44.0484 20.5001 44.3078 21.1292 44.3078 21.7851C44.3078 22.441 44.0484 23.0701 43.5868 23.5339C43.1252 23.9977 42.4991 24.2583 41.8462 24.2583H22.1539C21.5011 24.2583 20.875 23.9977 20.4134 23.5339C19.9517 23.0701 19.6924 22.441 19.6924 21.7851ZM19.6924 31.6778C19.6924 31.0218 19.9517 30.3928 20.4134 29.929C20.875 29.4652 21.5011 29.2046 22.1539 29.2046H41.8462C42.4991 29.2046 43.1252 29.4652 43.5868 29.929C44.0484 30.3928 44.3078 31.0218 44.3078 31.6778C44.3078 32.3337 44.0484 32.9627 43.5868 33.4265C43.1252 33.8904 42.4991 34.1509 41.8462 34.1509H22.1539C21.5011 34.1509 20.875 33.8903 20.4134 33.4265C19.9517 32.9627 19.6924 32.3337 19.6924 31.6778Z" fill="white"/>
</g>
<defs>
<clipPath id="clip0_376_2580">
<rect width="64" height="64" fill="white"/>
</clipPath>
</defs>
</svg>
