<svg width="64" height="64" viewBox="0 0 64 64" fill="none" xmlns="http://www.w3.org/2000/svg">
<g clip-path="url(#clip0_377_2603)">
<path d="M46.1558 64C20.7053 64 0 43.2947 0 17.8441C0.00442625 13.4777 1.59831 9.26227 4.4839 5.98527C7.36949 2.70826 11.3494 0.593846 15.6801 0.0370228C16.7822 -0.0959542 17.8977 0.131391 18.8598 0.68506C19.8219 1.23873 20.5789 2.08897 21.0177 3.10863L27.4576 18.1343C27.7916 18.9115 27.9278 19.7594 27.854 20.6021C27.7801 21.4449 27.4985 22.2562 27.0344 22.9635L21.7025 31.1106C24.1103 36.0059 28.0802 39.9596 32.9861 42.3456L41.013 36.995C41.7223 36.5204 42.539 36.2308 43.3888 36.1528C44.2386 36.0747 45.0944 36.2106 45.8782 36.548L60.891 42.982C61.9108 43.4206 62.7612 44.1776 63.3149 45.1397C63.8687 46.1019 64.096 47.2174 63.9629 48.3195C63.4062 52.6503 61.2918 56.6303 58.0148 59.516C54.7378 62.4016 50.5223 63.9956 46.1558 64ZM16.304 5.12914C13.2149 5.53012 10.3773 7.04154 8.32083 9.38126C6.26438 11.721 5.12964 14.7291 5.12843 17.8441C5.14076 28.7215 9.46724 39.1498 17.1587 46.8413C24.8502 54.5327 35.2785 58.8592 46.1558 58.8716C49.274 58.8691 52.2846 57.7315 54.6253 55.6714C56.966 53.6113 58.4767 50.7695 58.8752 47.6769L43.8583 41.262L35.8339 46.613C35.0963 47.1057 34.2435 47.3984 33.3588 47.4625C32.4741 47.5265 31.588 47.3598 30.7871 46.9786C24.8228 44.0884 19.9976 39.285 17.0802 33.334C16.6971 32.5378 16.5262 31.6562 16.5842 30.7746C16.6422 29.893 16.927 29.0413 17.4111 28.3022L22.7433 20.1548L16.304 5.12914Z" fill="white"/>
</g>
<defs>
<clipPath id="clip0_377_2603">
<rect width="64" height="64" fill="white"/>
</clipPath>
</defs>
</svg>
