<svg width="64" height="64" viewBox="0 0 64 64" fill="none" xmlns="http://www.w3.org/2000/svg">
<path d="M32 0C49.6731 0 64 14.3269 64 32C64 49.6731 49.6731 64 32 64C14.3269 64 0 49.6731 0 32C0 14.3269 14.3269 0 32 0Z" fill="#FEECEC"/>
<path d="M32 0C49.6731 0 64 14.3269 64 32C64 49.6731 49.6731 64 32 64C14.3269 64 0 49.6731 0 32C0 14.3269 14.3269 0 32 0Z" stroke="#FEECEC"/>
<path d="M47 50H17V14H47V50Z" stroke="#FEECEC"/>
<g clip-path="url(#clip0_596_5151)">
<path d="M43.25 31C43.25 29.5226 42.959 28.0597 42.3936 26.6948C41.8283 25.3299 40.9996 24.0897 39.955 23.045C38.9103 22.0004 37.6701 21.1717 36.3052 20.6064C34.9403 20.041 33.4774 19.75 32 19.75C30.5226 19.75 29.0597 20.041 27.6948 20.6064C26.3299 21.1717 25.0897 22.0004 24.045 23.045C23.0004 24.0897 22.1717 25.3299 21.6064 26.6948C21.041 28.0597 20.75 29.5226 20.75 31C20.75 32.4774 21.041 33.9403 21.6064 35.3052C22.1717 36.6701 23.0004 37.9103 24.045 38.955C25.0897 39.9996 26.3299 40.8283 27.6948 41.3936C29.0597 41.959 30.5226 42.25 32 42.25C33.4774 42.25 34.9403 41.959 36.3052 41.3936C37.6701 40.8283 38.9103 39.9996 39.955 38.955C40.9996 37.9103 41.8283 36.6701 42.3936 35.3052C42.959 33.9403 43.25 32.4774 43.25 31ZM17 31C17 27.0218 18.5804 23.2064 21.3934 20.3934C24.2064 17.5804 28.0218 16 32 16C35.9782 16 39.7936 17.5804 42.6066 20.3934C45.4196 23.2064 47 27.0218 47 31C47 34.9782 45.4196 38.7936 42.6066 41.6066C39.7936 44.4196 35.9782 46 32 46C28.0218 46 24.2064 44.4196 21.3934 41.6066C18.5804 38.7936 17 34.9782 17 31ZM32 35.6875C33.2432 35.6875 34.4355 35.1936 35.3146 34.3146C36.1936 33.4355 36.6875 32.2432 36.6875 31C36.6875 29.7568 36.1936 28.5645 35.3146 27.6854C34.4355 26.8064 33.2432 26.3125 32 26.3125C30.7568 26.3125 29.5645 26.8064 28.6854 27.6854C27.8064 28.5645 27.3125 29.7568 27.3125 31C27.3125 32.2432 27.8064 33.4355 28.6854 34.3146C29.5645 35.1936 30.7568 35.6875 32 35.6875ZM32 22.5625C34.2378 22.5625 36.3839 23.4514 37.9662 25.0338C39.5486 26.6161 40.4375 28.7622 40.4375 31C40.4375 33.2378 39.5486 35.3839 37.9662 36.9662C36.3839 38.5486 34.2378 39.4375 32 39.4375C29.7622 39.4375 27.6161 38.5486 26.0338 36.9662C24.4514 35.3839 23.5625 33.2378 23.5625 31C23.5625 28.7622 24.4514 26.6161 26.0338 25.0338C27.6161 23.4514 29.7622 22.5625 32 22.5625ZM30.125 31C30.125 30.5027 30.3225 30.0258 30.6742 29.6742C31.0258 29.3225 31.5027 29.125 32 29.125C32.4973 29.125 32.9742 29.3225 33.3258 29.6742C33.6775 30.0258 33.875 30.5027 33.875 31C33.875 31.4973 33.6775 31.9742 33.3258 32.3258C32.9742 32.6775 32.4973 32.875 32 32.875C31.5027 32.875 31.0258 32.6775 30.6742 32.3258C30.3225 31.9742 30.125 31.4973 30.125 31Z" fill="#F23D3D"/>
</g>
<defs>
<clipPath id="clip0_596_5151">
<path d="M17 16H47V46H17V16Z" fill="white"/>
</clipPath>
</defs>
</svg>
