<svg width="64" height="64" viewBox="0 0 64 64" fill="none" xmlns="http://www.w3.org/2000/svg">
<g clip-path="url(#clip0_377_2612)">
<path d="M32 0C25.671 0 19.4841 1.87677 14.2218 5.39297C8.95939 8.90917 4.85787 13.9069 2.43587 19.7541C0.013865 25.6014 -0.619841 32.0355 0.614885 38.2429C1.84961 44.4503 4.89732 50.1521 9.37259 54.6274C13.8479 59.1027 19.5497 62.1504 25.7571 63.3851C31.9645 64.6198 38.3986 63.9861 44.2459 61.5641C50.0931 59.1421 55.0908 55.0406 58.607 49.7782C62.1232 44.5159 64 38.329 64 32C63.9904 23.516 60.6159 15.3823 54.6168 9.38319C48.6177 3.3841 40.484 0.00960239 32 0ZM32 59.0769C26.6447 59.0769 21.4097 57.4889 16.9569 54.5136C12.5041 51.5384 9.03358 47.3095 6.9842 42.3619C4.93481 37.4142 4.3986 31.97 5.44337 26.7175C6.48813 21.4651 9.06696 16.6405 12.8537 12.8537C16.6405 9.06695 21.4652 6.48812 26.7176 5.44335C31.97 4.39858 37.4142 4.9348 42.3619 6.98418C47.3096 9.03357 51.5384 12.5041 54.5136 16.9569C57.4889 21.4096 59.0769 26.6447 59.0769 32C59.0688 39.1787 56.2135 46.0612 51.1373 51.1373C46.0612 56.2135 39.1788 59.0688 32 59.0769ZM51.6923 32C51.6923 32.3232 51.6287 32.6433 51.505 32.942C51.3813 33.2406 51.1999 33.512 50.9714 33.7406C50.7428 33.9692 50.4714 34.1505 50.1728 34.2742C49.8741 34.3979 49.554 34.4615 49.2308 34.4615H32C31.6768 34.4615 31.3567 34.3979 31.058 34.2742C30.7594 34.1505 30.488 33.9692 30.2594 33.7406C30.0308 33.512 29.8495 33.2406 29.7258 32.942C29.6021 32.6433 29.5385 32.3232 29.5385 32V14.7692C29.5385 14.1164 29.7978 13.4903 30.2594 13.0287C30.7211 12.567 31.3472 12.3077 32 12.3077C32.6528 12.3077 33.2789 12.567 33.7406 13.0287C34.2022 13.4903 34.4615 14.1164 34.4615 14.7692V29.5385H49.2308C49.554 29.5384 49.8741 29.6021 50.1728 29.7258C50.4714 29.8495 50.7428 30.0308 50.9714 30.2594C51.1999 30.488 51.3813 30.7593 51.505 31.058C51.6287 31.3566 51.6923 31.6767 51.6923 32Z" fill="white"/>
</g>
<defs>
<clipPath id="clip0_377_2612">
<rect width="64" height="64" fill="white"/>
</clipPath>
</defs>
</svg>
