<svg width="64" height="64" viewBox="0 0 64 64" fill="none" xmlns="http://www.w3.org/2000/svg">
<g clip-path="url(#clip0_269_668)">
<path d="M64 31.1758C64 48.394 49.9349 62.3516 32.5817 62.3516C27.0727 62.3516 21.8972 60.9436 17.3945 58.4725L0 64L5.67111 47.2732C2.81031 42.5756 1.16267 37.066 1.16267 31.1758C1.16267 13.9577 15.2292 0 32.5817 0C49.9364 0 64 13.9577 64 31.1758ZM32.5817 4.96498C18.0153 4.96498 6.16676 16.7232 6.16676 31.1758C6.16676 36.9109 8.03627 42.2222 11.1986 46.5429L7.89831 56.2773L18.0494 53.051C22.2201 55.7895 27.2164 57.3867 32.5824 57.3867C47.1467 57.3867 58.9973 45.6299 58.9973 31.1772C58.9973 16.7246 47.1474 4.96498 32.5817 4.96498ZM48.4473 38.3559C48.2532 38.038 47.7404 37.846 46.971 37.4642C46.2002 37.0823 42.4128 35.2327 41.7088 34.9788C41.0027 34.7243 40.4878 34.5963 39.9751 35.3607C39.4624 36.1259 37.9861 37.846 37.536 38.3559C37.0866 38.8672 36.6379 38.9312 35.867 38.5486C35.0976 38.1668 32.6165 37.3589 29.6747 34.7563C27.3856 32.731 25.8396 30.2308 25.3902 29.4649C24.9415 28.7004 25.3433 28.2873 25.728 27.9068C26.075 27.5641 26.4988 27.0144 26.8836 26.5685C27.2697 26.122 27.3977 25.8041 27.653 25.2935C27.9111 24.7836 27.7824 24.3378 27.589 23.9545C27.397 23.5726 25.8553 19.8123 25.2139 18.282C24.5724 16.7531 23.9317 17.0076 23.4816 17.0076C23.0329 17.0076 22.5188 16.9436 22.0053 16.9436C21.4919 16.9436 20.6571 17.1349 19.9509 17.8994C19.2455 18.6645 17.2565 20.5134 17.2565 24.2731C17.2565 28.0334 20.0149 31.6665 20.4011 32.1756C20.7858 32.6848 25.7273 40.6521 33.5566 43.712C41.3867 46.7705 41.3867 45.75 42.7989 45.622C44.2098 45.4948 47.3543 43.7739 47.9986 41.9904C48.6386 40.2041 48.6386 38.6745 48.4473 38.3559Z" fill="white"/>
</g>
<defs>
<clipPath id="clip0_269_668">
<rect width="64" height="64" fill="white"/>
</clipPath>
</defs>
</svg>
